<svg width="310" height="207" viewBox="0 0 310 207" fill="none" xmlns="http://www.w3.org/2000/svg">
<path d="M303.543 190.683L113.674 206.054C104.095 206.831 94.4601 205.918 85.2084 203.372C85.2084 203.372 38.6228 191.911 22.4407 186.096C6.03315 180.191 0.748047 170.906 0.748047 157.609V22.9566C0.748047 20.4099 2.81025 18.3477 5.34575 18.3477H208.49C211.037 18.3477 213.088 20.4099 213.088 22.9566L213.257 137.933C213.606 151.895 226.374 162.916 240.099 165.463L304.219 177.34C307.408 177.926 309.73 180.721 309.73 183.967C309.741 187.471 307.048 190.401 303.543 190.683Z" fill="#F8FAFC"/>
<path d="M107.002 206.574C99.6211 206.574 92.2964 205.582 85.1406 203.61C84.6786 203.497 38.3635 192.082 22.3616 186.324C7.03595 180.813 0.5 172.226 0.5 157.61V22.9585C0.5 20.2877 2.6749 18.1016 5.35689 18.1016H208.501C211.172 18.1016 213.358 20.2765 213.358 22.9585L213.527 137.935C213.888 152.517 227.523 162.873 240.167 165.217L304.287 177.094C307.6 177.703 310 180.599 310 183.968C310 187.586 307.183 190.639 303.577 190.932L113.707 206.303C111.465 206.484 109.233 206.574 107.002 206.574ZM5.35689 18.6087C2.95662 18.6087 1.0071 20.5582 1.0071 22.9697V157.622C1.0071 171.989 7.44164 180.441 22.5307 185.873C38.51 191.62 84.8025 203.035 85.2758 203.148C94.5389 205.695 104.095 206.596 113.662 205.819L303.532 190.448C306.879 190.177 309.493 187.338 309.493 183.98C309.493 180.847 307.262 178.165 304.185 177.601L240.065 165.724C233.09 164.428 226.498 161.047 221.505 156.179C216.198 151.018 213.189 144.55 213.02 137.957L212.851 22.9697C212.851 20.5694 210.901 18.6087 208.501 18.6087H5.35689Z" fill="#1F2937"/>
<path d="M12.5239 30.6856C14.5031 30.6856 16.1074 29.0762 16.1074 27.0909C16.1074 25.1055 14.5031 23.4961 12.5239 23.4961C10.5448 23.4961 8.94043 25.1055 8.94043 27.0909C8.94043 29.0762 10.5448 30.6856 12.5239 30.6856Z" fill="currentColor"/>
<path d="M22.9928 30.6856C24.9719 30.6856 26.5763 29.0762 26.5763 27.0909C26.5763 25.1055 24.9719 23.4961 22.9928 23.4961C21.0137 23.4961 19.4093 25.1055 19.4093 27.0909C19.4093 29.0762 21.0137 30.6856 22.9928 30.6856Z" fill="currentColor" fill-opacity="0.3"/>
<path d="M33.4617 30.6856C35.4408 30.6856 37.0452 29.0762 37.0452 27.0909C37.0452 25.1055 35.4408 23.4961 33.4617 23.4961C31.4826 23.4961 29.8782 25.1055 29.8782 27.0909C29.8782 29.0762 31.4826 30.6856 33.4617 30.6856Z" fill="currentColor" fill-opacity="0.3"/>
<path d="M144.37 30.2113H50.2302C49.1709 30.2113 48.3145 29.3548 48.3145 28.2956V25.8727C48.3145 24.8135 49.1709 23.957 50.2302 23.957H144.37C145.43 23.957 146.286 24.8135 146.286 25.8727V28.2956C146.275 29.3548 145.418 30.2113 144.37 30.2113Z" fill="currentColor" fill-opacity="0.3"/>
<path d="M6.03307 151.926C5.96546 151.926 5.90911 151.904 5.86404 151.859C5.81896 151.814 5.78516 151.746 5.78516 151.678V75.7037C5.78516 75.5684 5.89784 75.4557 6.03307 75.4557L111.093 74.543C111.161 74.543 111.228 74.5655 111.273 74.6106C111.318 74.6557 111.352 74.7233 111.352 74.7909V146.438C111.352 146.574 111.251 146.675 111.115 146.686L6.05561 151.938C6.03307 151.926 6.03307 151.926 6.03307 151.926ZM6.28099 75.9403V151.419L110.845 146.191V75.0388L6.28099 75.9403Z" fill="#1F2937"/>
<path d="M118.261 146.315C118.193 146.315 118.137 146.293 118.092 146.248C118.046 146.203 118.013 146.135 118.013 146.068V74.7805C118.013 74.6453 118.125 74.5326 118.261 74.5326L207.769 73.3381C207.837 73.3269 207.905 73.3607 207.95 73.4057C207.995 73.4508 208.029 73.5184 208.029 73.586L207.938 141.594C207.938 141.729 207.837 141.83 207.702 141.842L118.294 146.315C118.272 146.315 118.261 146.315 118.261 146.315ZM118.509 75.0285V145.808L207.42 141.357L207.51 73.8339L118.509 75.0285Z" fill="#1F2937"/>
<path d="M6.03262 70.1296C5.96501 70.1296 5.90866 70.107 5.85232 70.062C5.80724 70.0169 5.77344 69.9493 5.77344 69.8817V35.951C5.77344 35.8158 5.88613 35.7031 6.02135 35.7031H207.802C207.87 35.7031 207.926 35.7257 207.982 35.7707C208.027 35.8158 208.05 35.8834 208.05 35.951L208.005 68.0561C208.005 68.1913 207.892 68.304 207.757 68.304L6.03262 70.1296ZM6.28054 36.199V69.6337L207.52 67.8082L207.565 36.199H6.28054Z" fill="#1F2937"/>
<path d="M98.4489 199.303C98.4263 199.303 98.4151 199.303 98.3925 199.292C97.7615 199.157 35.6586 185.172 23.7925 179.662C10.2248 173.351 8.45555 163.085 8.44428 162.972C8.43301 162.905 8.45555 162.837 8.50062 162.781C8.5457 162.725 8.61331 162.691 8.68092 162.691L210.248 151.422C210.349 151.422 210.45 151.478 210.495 151.58C210.54 151.692 214.845 162.634 230.115 168.021C245.485 173.453 300.432 182.535 300.985 182.625C301.109 182.648 301.199 182.761 301.187 182.885C301.187 183.009 301.086 183.11 300.962 183.121L98.4602 199.303H98.4489ZM8.99645 163.175C9.3796 164.821 11.9264 173.599 24.0066 179.211C35.7037 184.654 96.6571 198.391 98.4714 198.796L298.922 182.783C288.882 181.093 243.705 173.34 229.957 168.483C215.499 163.378 210.721 153.349 210.101 151.918L8.99645 163.175Z" fill="#1F2937"/>
<path d="M54.4881 116.954V83.3162C54.4881 66.0523 69.2278 52 87.3594 52C105.491 52 120.231 66.0523 120.231 83.3162V116.954C120.231 120.267 117.414 122.949 113.943 122.949H60.7761C57.3053 122.949 54.4881 120.267 54.4881 116.954ZM107.632 83.3162C107.632 72.6559 98.5269 63.9901 87.3482 63.9901C76.1582 63.9901 67.0642 72.6559 67.0642 83.3162V110.959H107.632V83.3162Z" fill="#F8FAFC"/>
<path d="M113.931 123.199H60.776C57.17 123.199 54.2401 120.404 54.2401 116.956V83.3181C54.2401 65.9076 69.0924 51.7539 87.3593 51.7539C105.626 51.7539 120.479 65.9189 120.479 83.3181V116.956C120.467 120.404 117.537 123.199 113.931 123.199ZM87.348 52.2497C69.3629 52.2497 54.7246 66.1894 54.7246 83.3181V116.956C54.7246 120.122 57.4404 122.703 60.7647 122.703H113.92C117.256 122.703 119.96 120.122 119.96 116.956V83.3181C119.971 66.1894 105.333 52.2497 87.348 52.2497ZM107.632 111.209H67.064C66.9288 111.209 66.8161 111.096 66.8161 110.961V83.3181C66.8161 72.5225 76.0228 63.744 87.348 63.744C98.6733 63.744 107.88 72.5225 107.88 83.3181V110.961C107.88 111.096 107.779 111.209 107.632 111.209ZM67.312 110.713H107.384V83.3181C107.384 72.7929 98.3916 64.2398 87.348 64.2398C76.3045 64.2398 67.312 72.8042 67.312 83.3181V110.713Z" fill="#1F2937"/>
<path d="M36.0525 176.646H139.129C142.667 176.646 145.485 174.02 145.304 170.899L141.552 104.491C141.383 101.573 138.667 99.2852 135.376 99.2852H39.805C36.5145 99.2852 33.7875 101.573 33.6297 104.491L29.8772 170.899C29.6969 174.02 32.5141 176.646 36.0525 176.646Z" fill="#F8FAFC"/>
<path d="M139.14 176.896H36.0519C34.1474 176.896 32.3557 176.152 31.1274 174.856C30.0794 173.741 29.5497 172.332 29.6286 170.889L33.3811 104.482C33.5502 101.428 36.3787 99.0391 39.8044 99.0391H135.387C138.813 99.0391 141.641 101.428 141.81 104.482L145.563 170.889C145.642 172.343 145.112 173.752 144.064 174.856C142.836 176.152 141.044 176.896 139.14 176.896ZM39.8044 99.5349C36.6379 99.5349 34.0347 101.721 33.877 104.504L30.1244 170.912C30.0456 172.23 30.5301 173.504 31.488 174.518C32.6261 175.713 34.2827 176.4 36.0519 176.4H139.128C140.898 176.4 142.565 175.713 143.692 174.518C144.65 173.504 145.135 172.23 145.056 170.912L141.303 104.504C141.146 101.721 138.542 99.5349 135.376 99.5349H39.8044Z" fill="#1F2937"/>
<path d="M36.4246 171.138H36.4133C36.2781 171.126 36.1767 171.014 36.1767 170.879L39.9292 104.471C39.9405 104.336 40.0532 104.234 40.1884 104.234C40.3236 104.246 40.4251 104.358 40.4251 104.494L36.6725 170.912C36.6725 171.036 36.5598 171.138 36.4246 171.138Z" fill="#1F2937"/>
<path d="M78.4226 128.115C78.4226 123.269 82.5358 119.348 87.5955 119.348C92.6665 119.348 96.7684 123.269 96.7684 128.115C96.7684 131.18 95.1231 133.873 92.6327 135.44L96.4416 155.904H78.7494L82.5583 135.44C80.0679 133.873 78.4226 131.18 78.4226 128.115Z" fill="#F8FAFC"/>
<path d="M96.442 156.154H78.7498C78.6709 156.154 78.6033 156.12 78.5582 156.064C78.5132 156.007 78.4906 155.928 78.5019 155.861L82.277 135.565C79.6964 133.875 78.1638 131.103 78.1638 128.117C78.1638 123.147 82.3896 119.102 87.5846 119.102C92.7796 119.102 97.0054 123.147 97.0054 128.117C97.0054 131.103 95.4728 133.875 92.8923 135.565L96.6673 155.861C96.6786 155.928 96.6561 156.007 96.611 156.064C96.5885 156.12 96.5208 156.154 96.442 156.154ZM79.0428 155.658H96.1377L92.3852 135.487C92.3626 135.385 92.4077 135.284 92.4978 135.227C95.0108 133.638 96.5208 130.979 96.5208 128.105C96.5208 123.406 92.5204 119.586 87.5959 119.586C82.6714 119.586 78.6709 123.406 78.6709 128.105C78.6709 130.979 80.1697 133.638 82.6939 135.227C82.7841 135.284 82.8291 135.385 82.8066 135.487L79.0428 155.658Z" fill="#1F2937"/>
<path d="M135.408 84.746C143.795 76.3582 143.795 62.7589 135.408 54.3711C127.02 45.9833 113.421 45.9833 105.033 54.3711C96.645 62.7589 96.645 76.3582 105.033 84.746C113.421 93.1338 127.02 93.1338 135.408 84.746Z" fill="currentColor"/>
<path d="M118.19 79.8994C118.078 79.8994 117.976 79.8544 117.897 79.7642L109.142 68.9912C109.006 68.8334 109.04 68.5967 109.198 68.4728C109.356 68.3376 109.592 68.3714 109.716 68.5291L118.157 78.9078L130.699 59.3901C130.812 59.221 131.037 59.1647 131.217 59.2774C131.386 59.3901 131.443 59.6154 131.33 59.7957L118.517 79.7529C118.45 79.8544 118.348 79.922 118.224 79.922C118.202 79.8994 118.202 79.8994 118.19 79.8994Z" fill="#F8FAFC"/>
<path d="M129.936 190.062C132.393 190.062 134.861 189.194 136.822 187.459C137.453 186.895 137.509 185.937 136.957 185.306C136.393 184.675 135.436 184.619 134.805 185.171C131.92 187.729 127.514 187.605 124.775 184.889C121.958 182.095 121.89 177.486 124.64 174.612L132.145 166.769C132.731 166.161 132.709 165.191 132.1 164.605C131.491 164.019 130.522 164.042 129.936 164.651L122.431 172.494C118.544 176.562 118.634 183.086 122.623 187.053C124.629 189.048 127.288 190.062 129.936 190.062Z" fill="#1F2937"/>
<path d="M132.235 164.49C132.179 164.49 132.111 164.467 132.066 164.422C131.964 164.332 131.964 164.174 132.055 164.073L256.61 33.8158C256.7 33.7144 256.857 33.7144 256.959 33.8045C257.06 33.8947 257.06 34.0525 256.97 34.1539L132.415 164.411C132.37 164.467 132.302 164.49 132.235 164.49Z" fill="#1F2937"/>
<path d="M309.865 146.495C309.865 146.495 310.632 99.9548 249.825 41.9201C249.825 41.9201 194.889 -4.1584 137.947 0.698489C137.947 0.698489 157.848 7.5387 164.125 24.1603C164.125 24.1603 184.499 25.5126 201.064 52.8058C201.064 52.8058 229.18 57.4599 242.545 88.686C242.545 88.686 263.223 94.2866 276.814 119.349C276.814 119.337 296.264 126.651 309.865 146.495Z" fill="currentColor" fill-opacity="0.3"/>
<path d="M278.031 114.998C277.896 114.998 277.783 114.897 277.783 114.762C276.904 89.2603 267.382 64.4575 250.963 44.9173C250.873 44.8158 250.885 44.6581 250.997 44.5679C251.099 44.4778 251.256 44.489 251.347 44.6017C259.517 54.3268 266.007 65.3703 270.639 77.4393C275.27 89.5082 277.84 102.062 278.279 114.751C278.29 114.875 278.178 114.998 278.031 114.998C278.043 114.998 278.043 114.998 278.031 114.998Z" fill="#1F2937"/>
<path d="M243.267 86.3323C243.233 86.3323 243.211 86.3323 243.177 86.3211C243.053 86.276 242.986 86.1295 243.031 86.0055C248.045 72.8773 250.096 58.532 248.947 44.5135C248.936 44.3783 249.037 44.2543 249.172 44.243C249.307 44.2318 249.431 44.3332 249.443 44.4684C250.592 58.5545 248.541 72.9787 243.493 86.1746C243.459 86.2647 243.357 86.3323 243.267 86.3323Z" fill="#1F2937"/>
<path d="M245.239 40.2752C245.194 40.2752 245.16 40.2639 245.115 40.2414C230.578 32.3306 218.408 27.2258 206.834 24.1832C192.14 20.3293 178.302 19.7883 165.692 22.583C165.556 22.6168 165.421 22.5267 165.399 22.3915C165.365 22.2562 165.455 22.121 165.59 22.0985C178.279 19.2812 192.196 19.8222 206.958 23.6986C218.577 26.7525 230.781 31.8686 245.351 39.7906C245.475 39.8582 245.521 40.0047 245.453 40.1287C245.419 40.2301 245.329 40.2752 245.239 40.2752Z" fill="#1F2937"/>
<path d="M202.282 51.285C202.192 51.285 202.113 51.2399 202.068 51.161C202 51.037 202.045 50.8905 202.158 50.8229C214.745 43.5658 229.632 40.4781 244.067 42.1234C244.202 42.1346 244.304 42.2586 244.281 42.3938C244.27 42.529 244.146 42.6305 244.011 42.6079C229.677 40.9739 214.903 44.0391 202.406 51.2399C202.372 51.2737 202.327 51.285 202.282 51.285Z" fill="#1F2937"/>
<path d="M205.661 82.4064C205.661 82.4064 212.344 84.3334 211.826 77.3805C211.364 71.1263 209.166 75.9155 208.276 75.6338C207.318 75.3295 208.107 73.4138 206.879 73.2561C205.661 73.0983 204.726 74.8675 203.52 74.5633C202.303 74.259 199.892 72.3996 197.548 73.7406C195.587 74.8675 195.497 77.1776 195.497 77.1776C195.497 77.1776 193.074 77.3805 192.511 81.0767C191.947 84.7616 196.996 91.6356 196.996 91.6356L205.661 82.4064Z" fill="#1F2937"/>
<path d="M195.351 88.6939L191.79 99.0951C191.565 99.76 191.001 100.256 190.303 100.391L188.714 100.695C188.714 100.695 192.838 109.643 199.791 108.144C206.744 106.645 205.212 100.695 205.212 100.695L203.747 100.571C202.868 100.504 202.259 99.6585 202.484 98.8021L204.13 92.4126C204.13 92.4126 197.402 86.9923 195.351 88.6939Z" fill="#F8FAFC"/>
<path d="M198.247 108.562C192.151 108.562 188.533 100.888 188.488 100.809C188.454 100.742 188.454 100.663 188.488 100.595C188.522 100.528 188.59 100.482 188.657 100.46L190.246 100.156C190.843 100.043 191.339 99.6035 191.542 99.0288L195.103 88.6276C195.114 88.5825 195.148 88.5487 195.182 88.5149C197.323 86.7344 203.577 91.6589 204.276 92.2336C204.355 92.29 204.389 92.3914 204.366 92.4928L202.71 98.8823C202.619 99.2203 202.687 99.5697 202.89 99.8514C203.093 100.133 203.408 100.313 203.758 100.336L205.223 100.46C205.324 100.471 205.414 100.539 205.448 100.64C205.47 100.742 206.068 103.153 204.715 105.351C203.769 106.872 202.135 107.897 199.836 108.393C199.295 108.506 198.765 108.562 198.247 108.562ZM189.086 100.877C189.863 102.376 193.762 109.182 199.735 107.897C201.887 107.435 203.42 106.489 204.287 105.08C205.335 103.39 205.099 101.497 204.997 100.922L203.713 100.821C203.217 100.775 202.777 100.528 202.484 100.122C202.202 99.7162 202.101 99.2203 202.225 98.7358L203.836 92.4928C201.932 90.9828 197.12 87.681 195.543 88.8304L192.004 99.164C191.745 99.9077 191.103 100.471 190.336 100.618L189.086 100.877Z" fill="#1F2937"/>
<path d="M197.785 90.3065C197.785 90.3065 199.509 94.2844 204.028 93.5519C208.547 92.8195 208.66 87.0723 208.265 80.9646C207.612 81.2801 206.812 81.5055 205.651 81.4717C203.69 81.4154 199.611 80.6265 199.419 80.1758C200.152 81.8999 200.433 83.6691 199.521 84.7735C199.16 85.258 198.484 85.6074 197.278 85.6299C197.278 85.6299 196.703 83.7142 195.002 84.8298C193.289 85.9455 193.92 90.6333 197.785 90.3065Z" fill="#F8FAFC"/>
<path d="M202.946 93.9027C199.588 93.9027 197.987 91.2658 197.627 90.5784C195.925 90.6572 194.607 89.7783 194.066 88.2119C193.581 86.7807 193.919 85.2482 194.855 84.6284C195.429 84.2565 195.97 84.1438 196.432 84.3241C197.007 84.5382 197.311 85.0904 197.435 85.3834C198.337 85.3383 198.968 85.0904 199.306 84.6396C200.253 83.5015 199.757 81.6421 199.182 80.2786C199.126 80.1546 199.182 80.0081 199.317 79.9518C199.441 79.8954 199.576 79.9518 199.633 80.0645C199.993 80.4138 203.622 81.1688 205.65 81.2252C206.619 81.259 207.408 81.1012 208.141 80.7406C208.22 80.7068 208.299 80.7068 208.377 80.7519C208.445 80.797 208.49 80.8646 208.501 80.9547C208.885 86.7582 208.896 93.0124 204.061 93.8013C203.678 93.8689 203.295 93.9027 202.946 93.9027ZM197.785 90.06C197.886 90.06 197.976 90.1163 198.01 90.2065C198.078 90.3642 199.723 94.0041 203.994 93.3054C208.321 92.6068 208.389 86.8258 208.039 81.3379C207.329 81.6309 206.552 81.7435 205.65 81.721C204.512 81.6872 201.334 81.2364 199.903 80.7068C200.557 82.5436 200.5 83.9973 199.712 84.9326C199.261 85.5299 198.45 85.8567 197.289 85.868C197.176 85.868 197.086 85.8003 197.052 85.6877C197.052 85.6764 196.827 84.9664 196.286 84.7636C195.97 84.6509 195.587 84.7298 195.148 85.0228C194.404 85.5074 194.145 86.8258 194.562 88.0203C194.787 88.6852 195.565 90.2177 197.773 90.0374C197.762 90.06 197.773 90.06 197.785 90.06Z" fill="#1F2937"/>
<path d="M196.658 88.1224C196.556 88.1224 196.455 88.0548 196.421 87.9534C196.32 87.6716 196.229 87.3786 196.06 87.1533C195.891 86.9279 195.666 86.7814 195.452 86.7701C195.317 86.7589 195.215 86.6462 195.226 86.4997C195.238 86.3644 195.35 86.263 195.486 86.2743C195.846 86.2968 196.207 86.5109 196.455 86.8715C196.669 87.1645 196.782 87.5026 196.883 87.8069C196.928 87.9421 196.86 88.0773 196.725 88.1224C196.703 88.1111 196.68 88.1224 196.658 88.1224Z" fill="#1F2937"/>
<path d="M186.03 145.387L207.103 142.75L209.12 147.562L192.791 155.506C192.803 155.495 184.711 149.928 186.03 145.387Z" fill="currentColor"/>
<path d="M180.778 162.18C180.778 162.18 233.381 124.868 249.292 129.23C265.204 133.591 261.621 154.066 252.256 161.966C245.743 167.454 235.443 176.243 206.313 183.016C177.183 189.789 180.778 162.18 180.778 162.18Z" fill="#F8FAFC"/>
<path d="M197.884 184.333C192.937 184.333 188.982 183.004 186.052 180.355C179.076 174.045 180.519 162.269 180.53 162.156C180.541 162.089 180.575 162.021 180.632 161.987C180.767 161.897 193.963 152.555 208.939 143.867C229.088 132.181 242.689 127.178 249.349 129.003C256.652 130.998 259.21 136.069 260.066 139.968C260.877 143.664 260.517 147.991 259.041 152.149C257.598 156.217 255.243 159.778 252.403 162.167L252.313 162.246C245.991 167.576 235.41 176.513 206.358 183.274C203.282 183.973 200.454 184.333 197.884 184.333ZM181.015 162.314C180.891 163.497 179.955 174.158 186.39 179.984C190.706 183.894 197.4 184.829 206.257 182.767C235.184 176.039 245.304 167.498 252.009 161.852L252.099 161.773C257.902 156.871 261.204 147.338 259.593 140.058C258.759 136.294 256.291 131.403 249.225 129.465C233.911 125.273 183.483 160.579 181.015 162.314Z" fill="#1F2937"/>
<path d="M226.463 176.592C226.361 176.592 226.271 176.535 226.237 176.434C223.578 169.797 211.464 156.871 211.34 156.736C211.25 156.635 211.25 156.477 211.351 156.387C211.452 156.296 211.61 156.296 211.7 156.398C212.196 156.927 224.006 169.526 226.699 176.242C226.756 176.366 226.688 176.513 226.564 176.569C226.53 176.58 226.496 176.592 226.463 176.592Z" fill="#1F2937"/>
<path d="M192.228 167.361C192.161 167.361 192.082 167.327 192.037 167.271C191.947 167.17 191.958 167.012 192.07 166.922C200.128 160.172 236.56 140.586 236.932 140.395C237.056 140.327 237.202 140.372 237.27 140.496C237.338 140.62 237.293 140.767 237.169 140.834C236.797 141.026 200.409 160.589 192.397 167.305C192.341 167.339 192.285 167.361 192.228 167.361Z" fill="#1F2937"/>
<path d="M225.415 181.371C225.821 181.867 225.911 182.554 225.629 183.129C225.359 183.703 224.773 184.075 224.13 184.075C219.059 184.075 206.551 184.075 178.683 184.075C173.972 184.075 169.442 182.295 165.994 179.094C161.103 174.542 153.722 167.623 147.502 161.481C140.447 154.517 138.227 144.037 141.834 134.808C141.89 134.673 141.946 134.537 141.991 134.402C145.045 126.649 154.556 123.809 161.351 128.632C175.043 138.357 196.736 154.348 205.322 163.904C205.334 163.904 220.017 174.79 225.415 181.371Z" fill="#F8FAFC"/>
<path d="M224.13 184.336H178.683C173.893 184.336 169.329 182.544 165.825 179.287C160.788 174.611 153.497 167.759 147.333 161.663C140.211 154.631 137.957 144.049 141.608 134.73L141.766 134.324C143.253 130.549 146.33 127.732 150.217 126.571C154.094 125.422 158.207 126.098 161.509 128.442C174.175 137.446 196.735 153.988 205.514 163.725C206.134 164.187 220.355 174.802 225.617 181.225C226.08 181.789 226.181 182.589 225.865 183.254C225.539 183.907 224.862 184.336 224.13 184.336ZM153.959 126.504C152.753 126.504 151.547 126.673 150.353 127.033C146.611 128.149 143.648 130.865 142.216 134.493L142.059 134.899C138.486 144.038 140.684 154.405 147.671 161.302C153.835 167.387 161.126 174.239 166.152 178.915C169.566 182.082 174.006 183.828 178.671 183.828H224.119C224.66 183.828 225.167 183.513 225.392 183.017C225.629 182.533 225.55 181.935 225.212 181.518C219.904 175.027 205.322 164.198 205.176 164.085C205.164 164.074 205.153 164.063 205.142 164.052C196.409 154.349 173.871 137.818 161.205 128.825C159.052 127.304 156.528 126.504 153.959 126.504Z" fill="#1F2937"/>
<path d="M187.473 184.336C187.428 184.336 187.383 184.325 187.349 184.303C176.328 177.823 163.718 166.622 155.221 155.747C154.083 154.282 152.911 152.705 152.213 150.924C152.167 150.8 152.224 150.654 152.359 150.597C152.483 150.552 152.629 150.609 152.686 150.744C153.351 152.468 154.5 154.012 155.627 155.443C164.09 166.272 176.643 177.429 187.608 183.874C187.732 183.942 187.766 184.1 187.698 184.212C187.642 184.291 187.552 184.336 187.473 184.336Z" fill="#1F2937"/>
<path d="M185.174 180.709C185.118 180.709 185.061 180.686 185.016 180.653C184.915 180.562 184.904 180.405 184.994 180.303C190.685 173.79 197.266 168.133 204.557 163.479C204.669 163.411 204.827 163.434 204.895 163.558C204.973 163.67 204.94 163.828 204.816 163.896C197.559 168.516 191.011 174.139 185.354 180.619C185.309 180.675 185.242 180.709 185.174 180.709Z" fill="#1F2937"/>
<path d="M179.505 175.736C179.437 175.736 179.381 175.713 179.336 175.668C179.234 175.578 179.234 175.42 179.336 175.319C185.252 169.234 191.765 163.667 198.685 158.754C198.797 158.675 198.955 158.697 199.034 158.81C199.113 158.923 199.09 159.081 198.978 159.159C192.081 164.05 185.601 169.606 179.696 175.668C179.64 175.713 179.572 175.736 179.505 175.736Z" fill="#1F2937"/>
<path d="M220.095 105.426C218.044 102.654 214.9 100.885 211.452 100.569C209.491 100.389 207.034 100.197 204.296 100.062C204.15 100.558 203.935 101.031 203.665 101.482C202.876 102.789 201.625 103.792 200.239 104.412C198.853 105.032 197.298 105.313 195.788 105.133C194.301 104.953 192.892 104.322 191.867 103.217C191.033 102.316 190.03 101.234 189.77 100.051C187.28 100.186 185.331 100.4 182.987 100.761C178.535 101.459 174.625 104.108 172.27 107.939C167.954 114.971 160.471 127.491 160.077 137.554C159.435 153.781 185.804 146.896 185.804 146.896L215.418 144.18L232.581 130.916C232.581 130.928 227.24 115.061 220.095 105.426Z" fill="currentColor"/>
<path d="M186.02 143.705C185.817 145.069 187.203 146.128 188.465 145.564C191.046 144.426 193.852 143.84 196.68 143.874L208.907 143.998C208.907 143.998 209.865 128.255 192.578 130.16C192.578 130.16 187.361 134.69 186.02 143.705Z" fill="#F8FAFC"/>
<path d="M200.013 144.225C200.002 144.225 199.991 144.225 199.979 144.225C199.844 144.202 199.754 144.079 199.765 143.943C199.889 143.087 199.686 142.14 199.202 141.273C198.785 140.54 198.176 139.841 197.32 139.143C197.162 139.019 196.993 138.884 196.813 138.805C196.689 138.748 196.633 138.602 196.689 138.478C196.745 138.354 196.892 138.298 197.016 138.354C197.252 138.455 197.466 138.624 197.647 138.771C198.548 139.503 199.202 140.247 199.641 141.036C200.182 142.005 200.408 143.064 200.261 144.022C200.239 144.135 200.137 144.225 200.013 144.225Z" fill="#1F2937"/>
<path d="M203.97 144.005C203.846 144.005 203.744 143.915 203.722 143.791C203.575 142.754 203.361 141.537 202.91 140.41C202.448 139.249 201.772 138.303 200.949 137.672C200.837 137.593 200.825 137.435 200.904 137.322C200.983 137.21 201.141 137.199 201.254 137.277C202.144 137.965 202.876 138.979 203.384 140.23C203.857 141.413 204.071 142.664 204.229 143.723C204.251 143.858 204.15 143.982 204.015 144.005C203.992 144.005 203.981 144.005 203.97 144.005Z" fill="#1F2937"/>
<path d="M207.135 144.005C207.124 144.005 207.112 144.005 207.101 144.005C206.966 143.994 206.864 143.87 206.887 143.735C207.417 139.328 204.532 136.601 204.509 136.568C204.408 136.477 204.408 136.32 204.498 136.218C204.588 136.117 204.746 136.117 204.847 136.207C204.971 136.32 207.935 139.137 207.383 143.791C207.36 143.915 207.259 144.005 207.135 144.005Z" fill="#1F2937"/>
<path d="M238.88 146.305H194.278C194.019 146.305 193.748 146.237 193.534 146.091C193.027 145.741 192.847 145.11 193.049 144.57C193.579 143.465 194.661 143.082 196.272 143.082H241.81L241.224 144.682C240.852 145.651 239.917 146.305 238.88 146.305Z" fill="#1F2937"/>
<path d="M239.129 146.304C240.019 146.304 240.819 145.763 241.157 144.929L249.057 125.13C249.271 124.6 249.203 124.014 248.888 123.541C248.572 123.067 248.042 122.797 247.479 122.797H220.073C218.416 122.797 216.951 123.834 216.399 125.389L208.984 146.293H239.129V146.304Z" fill="#1F2937"/>
<path d="M232.649 133.038C233.495 133.038 234.181 132.352 234.181 131.505C234.181 130.659 233.495 129.973 232.649 129.973C231.802 129.973 231.116 130.659 231.116 131.505C231.116 132.352 231.802 133.038 232.649 133.038Z" fill="currentColor"/>
<path d="M171.852 130.614C171.717 130.614 171.604 130.501 171.604 130.366C171.604 130.231 171.706 130.118 171.852 130.118L191.798 129.735C191.934 129.724 192.046 129.837 192.046 129.983C192.046 130.118 191.945 130.231 191.798 130.231L171.852 130.614Z" fill="#1F2937"/>
<path d="M178.513 129.488C178.49 129.488 178.468 129.488 178.445 129.477C178.31 129.431 178.242 129.296 178.276 129.172C179.009 126.749 180.012 124.406 181.262 122.208C181.533 121.735 181.984 121.092 182.66 121.126C182.795 121.126 182.908 121.25 182.896 121.385C182.896 121.521 182.772 121.633 182.637 121.622C182.322 121.622 182.017 121.881 181.691 122.456C180.451 124.62 179.471 126.93 178.749 129.319C178.716 129.42 178.614 129.488 178.513 129.488Z" fill="#1F2937"/>
</svg>
