<svg width="77" height="99" viewBox="0 0 77 99" fill="none" xmlns="http://www.w3.org/2000/svg">
<path d="M71.6617 43.2168H5.28442C2.78477 43.2168 0.76825 45.2337 0.76825 47.7337V67.6713C0.76825 84.6887 14.5688 98.4706 31.5623 98.4706H45.3628C62.3773 98.4706 76.1569 84.6676 76.1569 67.6713V47.7337C76.1989 45.2337 74.1613 43.2168 71.6617 43.2168Z" fill="currentColor"/>
<path d="M65.4017 37.9446C63.8683 37.9446 62.629 36.705 62.629 35.1714V25.8013C62.629 14.8346 53.7017 5.92676 42.7578 5.92676H34.2296C23.2647 5.92676 14.3584 14.8346 14.3584 25.8013V35.1714C14.3584 36.705 13.1191 37.9446 11.5857 37.9446C10.0523 37.9446 8.81299 36.705 8.81299 35.1714V25.8013C8.81299 11.7883 20.219 0.380371 34.2296 0.380371H42.7578C56.7685 0.380371 68.1744 11.7883 68.1744 25.8013V35.1714C68.1744 36.684 66.9141 37.9446 65.4017 37.9446Z" fill="currentColor"/>
<path d="M45.2796 61.7698C45.2796 58.0092 42.2338 54.9629 38.4738 54.9629C34.7138 54.9629 31.668 58.0092 31.668 61.7698C31.668 64.3539 33.0964 66.5809 35.2179 67.7364V80.846C35.2179 82.6528 36.6883 84.1024 38.4738 84.1024C40.2802 84.1024 41.7296 82.6318 41.7296 80.846V67.7364C43.8512 66.5809 45.2796 64.3329 45.2796 61.7698Z" fill="#F5F3FF"/>
</svg>
