<svg width="343" height="203" viewBox="0 0 343 203" fill="none" xmlns="http://www.w3.org/2000/svg">
<path d="M258.232 189.314H285.496V163.541H258.232V189.314Z" fill="white"/>
<path d="M285.498 189.524C285.382 189.524 285.286 189.428 285.286 189.313V163.751H258.445V189.313C258.445 189.428 258.349 189.524 258.233 189.524C258.118 189.524 258.021 189.428 258.021 189.313V163.539C258.021 163.424 258.118 163.328 258.233 163.328H285.498C285.613 163.328 285.709 163.424 285.709 163.539V189.313C285.709 189.428 285.613 189.524 285.498 189.524Z" fill="#1F2937"/>
<path d="M210.785 189.313H240.205L253.144 163.539H223.725L210.785 189.313Z" fill="white"/>
<path d="M240.205 189.524C240.176 189.524 240.137 189.515 240.108 189.505C240.002 189.457 239.964 189.322 240.012 189.216L252.798 163.751H223.85L210.968 189.409C210.92 189.515 210.785 189.553 210.679 189.505C210.573 189.457 210.535 189.322 210.583 189.216L223.523 163.443C223.561 163.376 223.628 163.328 223.715 163.328H253.134C253.211 163.328 253.279 163.366 253.317 163.424C253.356 163.491 253.356 163.568 253.327 163.626L240.387 189.399C240.358 189.486 240.281 189.524 240.205 189.524Z" fill="#1F2937"/>
<path d="M208.207 173.939L240.243 121.094L280.159 127.559L302.363 174.786L208.207 173.939Z" fill="white"/>
<path d="M302.364 174.997L208.208 174.151C208.131 174.151 208.063 174.112 208.025 174.045C207.986 173.978 207.986 173.901 208.025 173.833L240.071 120.988C240.119 120.911 240.196 120.872 240.283 120.892L280.198 127.357C280.265 127.366 280.323 127.414 280.352 127.472L302.556 174.699C302.585 174.766 302.585 174.843 302.546 174.901C302.498 174.959 302.431 174.997 302.364 174.997ZM208.573 173.737L302.027 174.574L280.015 127.751L240.35 121.325L208.573 173.737Z" fill="#1F2937"/>
<path d="M282.235 131.994L283.755 86.4795C283.755 86.4795 263.225 80.0627 254.316 79.8221C254.316 79.8221 237.047 120.805 234.479 129.252L282.235 131.994Z" fill="currentColor"/>
<path d="M292.722 148.722C279.965 151.839 269.19 148.665 261.811 149.983C256.789 150.887 254.278 151.339 253.307 152.051C253.076 152.224 252.287 152.85 251.517 152.628C250.988 152.474 250.517 151.945 250.449 151.378C250.334 150.445 251.325 149.617 251.238 149.54C251.152 149.463 250.392 150.56 249.035 151.012C248.612 151.156 248.131 151.301 247.563 151.147C247.409 151.099 246.659 150.897 246.409 150.242C246.168 149.627 246.447 148.838 247.101 148.338C246.726 148.559 246.197 148.857 245.543 149.175C244.85 149.521 244.667 149.579 244.456 149.579C243.859 149.588 243.022 149.232 242.791 148.434C242.57 147.664 242.993 146.779 243.83 146.442C243.176 146.885 242.551 146.991 242.07 146.577C241.589 146.163 241.695 145.605 241.925 145.009C242.147 144.412 242.618 143.941 243.08 143.518C250.671 136.601 261.917 136.177 261.917 136.177C265.602 135.754 269.498 135.408 273.577 135.167C277.454 134.946 281.168 134.84 284.708 134.83C283.14 128.288 281.331 118.735 280.869 107.037C280.581 99.8214 280.138 87.4687 283.755 86.4681C285.843 85.8909 288.45 89.3062 290.365 91.8171C295.791 98.9267 296.945 105.555 301.265 127.038C301.265 127.038 301.823 129.799 302.467 136.273C302.939 141.036 302.852 142.027 302.467 142.892C301.438 145.201 298.975 147.193 292.722 148.722Z" fill="white"/>
<path d="M251.853 152.898C251.728 152.898 251.593 152.879 251.468 152.85C250.853 152.677 250.323 152.061 250.246 151.417C250.208 151.119 250.266 150.83 250.372 150.57C250.035 150.82 249.612 151.061 249.111 151.224C248.688 151.359 248.159 151.532 247.514 151.359C246.87 151.176 246.408 150.811 246.216 150.32C246.062 149.916 246.09 149.464 246.283 149.041C246.071 149.156 245.86 149.262 245.648 149.368C244.926 149.733 244.724 149.791 244.474 149.801C243.762 149.81 242.848 149.368 242.598 148.511C242.454 148.021 242.55 147.501 242.81 147.068C242.425 147.078 242.146 146.934 241.944 146.751C241.348 146.241 241.511 145.548 241.732 144.952C241.982 144.288 242.492 143.797 242.945 143.374C250.506 136.486 261.801 135.986 261.916 135.986C265.764 135.543 269.69 135.206 273.567 134.975C277.174 134.764 280.83 134.658 284.438 134.639C283.687 131.474 283.033 128.241 282.494 125.028C282.475 124.912 282.552 124.807 282.668 124.787C282.783 124.768 282.889 124.845 282.908 124.96C283.456 128.251 284.13 131.56 284.909 134.802C284.928 134.87 284.909 134.927 284.871 134.985C284.832 135.033 284.774 135.062 284.707 135.062C281.013 135.072 277.271 135.187 273.586 135.399C269.709 135.62 265.793 135.957 261.935 136.409C261.81 136.418 250.67 136.909 243.224 143.692C242.8 144.076 242.338 144.529 242.117 145.106C241.857 145.798 241.877 146.154 242.204 146.433C242.492 146.684 242.868 146.712 243.31 146.51C243.445 146.414 243.589 146.328 243.743 146.27C243.839 146.231 243.955 146.27 244.012 146.366C244.061 146.462 244.032 146.578 243.945 146.645C243.801 146.741 243.666 146.818 243.531 146.886C243.06 147.251 242.829 147.857 242.993 148.406C243.195 149.108 243.974 149.406 244.455 149.397C244.619 149.397 244.772 149.358 245.455 149.012C245.985 148.752 246.504 148.473 247.004 148.175C247.101 148.117 247.226 148.146 247.283 148.242C247.341 148.338 247.322 148.463 247.235 148.531C246.658 148.973 246.398 149.656 246.61 150.195C246.745 150.551 247.11 150.83 247.62 150.974C248.14 151.119 248.582 150.974 248.967 150.849C249.881 150.551 250.506 149.945 250.843 149.618C251.055 149.416 251.209 149.262 251.382 149.416C251.555 149.57 251.411 149.753 251.266 149.935C251.026 150.234 250.583 150.801 250.66 151.378C250.718 151.85 251.122 152.321 251.574 152.456C252.209 152.639 252.921 152.11 253.152 151.936L253.19 151.907C254.201 151.167 256.731 150.705 261.781 149.801C264.773 149.262 268.256 149.454 272.287 149.685C278.281 150.022 285.082 150.397 292.673 148.54C298.137 147.203 301.1 145.443 302.265 142.826C302.621 142.037 302.726 141.142 302.245 136.313C301.61 129.934 301.052 127.125 301.043 127.096L300.504 124.393C296.646 105.19 295.347 98.7254 290.191 91.9621C288.315 89.5089 285.756 86.1513 283.812 86.6901C283.697 86.719 283.582 86.6516 283.553 86.5458C283.524 86.4303 283.591 86.3149 283.697 86.286C285.919 85.6703 288.584 89.1626 290.528 91.712C295.751 98.5522 297.05 105.046 300.927 124.316L301.466 127.019C301.476 127.048 302.034 129.867 302.669 136.274C303.14 140.959 303.073 142.056 302.649 143.009C301.418 145.75 298.378 147.588 292.769 148.954C285.111 150.83 278.281 150.445 272.258 150.108C268.246 149.887 264.793 149.695 261.849 150.224C256.865 151.119 254.364 151.571 253.44 152.254L253.412 152.273C253.181 152.427 252.546 152.898 251.853 152.898Z" fill="#1F2937"/>
<path d="M243.839 146.664C243.781 146.664 243.723 146.645 243.685 146.597C243.608 146.51 243.618 146.376 243.704 146.299C244.762 145.356 246.465 144.096 247.591 143.326C247.687 143.259 247.822 143.287 247.889 143.384C247.957 143.48 247.928 143.615 247.831 143.682C246.715 144.442 245.032 145.693 243.983 146.626C243.935 146.645 243.887 146.664 243.839 146.664Z" fill="#1F2937"/>
<path d="M247.091 148.55C247.034 148.55 246.976 148.53 246.937 148.482C246.86 148.396 246.86 148.261 246.947 148.184C247.659 147.53 248.419 146.914 249.208 146.356C249.824 145.923 250.478 145.519 251.132 145.154C251.238 145.096 251.363 145.134 251.421 145.24C251.478 145.346 251.44 145.471 251.334 145.529C250.689 145.885 250.054 146.279 249.448 146.712C248.679 147.251 247.928 147.857 247.236 148.502C247.188 148.53 247.139 148.55 247.091 148.55Z" fill="#1F2937"/>
<path d="M251.227 149.762C251.17 149.762 251.112 149.734 251.064 149.685C250.987 149.599 250.997 149.464 251.083 149.387C251.535 149.002 252.007 148.637 252.507 148.319C253.113 147.925 253.758 147.588 254.431 147.309C254.537 147.261 254.662 147.319 254.71 147.425C254.758 147.53 254.7 147.656 254.595 147.704C253.95 147.973 253.325 148.3 252.738 148.675C252.257 148.983 251.795 149.33 251.362 149.705C251.333 149.743 251.276 149.762 251.227 149.762Z" fill="#1F2937"/>
<path d="M239.895 174.343L267.505 180.741C269.343 181.164 271.132 179.894 271.334 178.018L273.076 161.885C273.249 160.307 272.21 158.854 270.661 158.489L246.841 152.967C245.292 152.611 243.724 153.457 243.185 154.958L237.653 170.216C237.018 171.986 238.067 173.92 239.895 174.343Z" fill="currentColor" fill-opacity="0.3"/>
<path d="M269.999 158.19C269.989 158.19 269.979 158.19 269.97 158.19C269.854 158.171 269.768 158.065 269.787 157.95C269.816 157.738 272.394 136.486 263.312 134.985C259.445 134.35 258.031 136.39 257.973 136.477C257.906 136.573 257.78 136.602 257.684 136.534C257.588 136.467 257.559 136.342 257.627 136.246C257.694 136.149 259.243 133.889 263.389 134.572C267.334 135.226 269.758 139.497 270.412 146.944C270.893 152.504 270.22 157.95 270.21 158.007C270.201 158.113 270.104 158.19 269.999 158.19Z" fill="#1F2937"/>
<path d="M248.217 153.101C248.188 153.101 248.159 153.091 248.13 153.081C248.025 153.033 247.976 152.908 248.025 152.802L248.804 151.042C248.852 150.936 248.977 150.888 249.083 150.936C249.189 150.984 249.237 151.109 249.189 151.215L248.409 152.975C248.371 153.062 248.294 153.101 248.217 153.101Z" fill="#1F2937"/>
<path d="M244.197 104.22C244.197 104.22 225.398 117.102 217.057 109.107C207.533 99.9772 217.317 83.3723 226.553 69.9132C226.553 69.9132 223.58 67.1425 222.118 64.593C220.655 62.0436 219 59.8886 219.78 59.1286C220.559 58.3782 222.339 59.7058 223.205 60.9565C223.205 60.9565 219.126 54.2702 221.309 53.1639C223.493 52.0575 224.205 55.3862 224.205 55.3862C224.205 55.3862 223.474 51.4899 225.465 51.3552C227.457 51.2205 227.351 54.4626 227.351 54.4626C227.351 54.4626 227.515 51.9132 229.035 52.1056C230.555 52.298 230.362 57.4546 233.316 59.6962C233.316 59.6962 232.046 55.2515 233.662 54.7416C235.278 54.2318 236.038 57.445 237.202 60.2157C238.367 62.996 240.377 66.6326 238.28 72.4819C236.183 78.3311 229.872 93.5892 229.872 93.5892C229.872 93.5892 246.804 77.9078 254.269 79.8127L244.197 104.22Z" fill="white"/>
<path d="M229.869 93.8013C229.831 93.8013 229.783 93.7917 229.744 93.7628C229.667 93.7051 229.629 93.5993 229.667 93.5127C229.735 93.3588 235.988 78.2065 238.066 72.4149C239.961 67.1429 238.489 63.7565 237.306 61.0339C237.2 60.7837 237.094 60.5336 236.989 60.2931C236.758 59.7351 236.536 59.1579 236.325 58.5903C236.181 58.2054 236.036 57.8206 235.892 57.4647C235.844 57.3588 235.902 57.2338 236.007 57.1857C236.113 57.1376 236.238 57.1953 236.286 57.3011C236.431 57.6667 236.575 58.0515 236.719 58.4363C236.931 58.9943 237.143 59.5716 237.383 60.1199C237.479 60.3604 237.585 60.6009 237.701 60.8511C238.845 63.4967 240.414 67.114 238.47 72.54C236.681 77.5234 231.784 89.4625 230.418 92.7815C233.727 89.8184 247.6 77.8698 254.315 79.5822C254.431 79.6111 254.498 79.7265 254.469 79.842C254.44 79.9574 254.325 80.0247 254.209 79.9959C246.936 78.1391 230.177 93.5704 230.004 93.7243C229.975 93.7821 229.918 93.8013 229.869 93.8013Z" fill="#1F2937"/>
<path d="M224.377 111.917C221.279 111.917 218.749 111.032 216.902 109.252C207.57 100.305 216.373 84.3732 226.272 69.9328C225.676 69.3556 223.232 66.9601 221.933 64.68C221.626 64.1413 221.308 63.6122 221 63.1119C219.778 61.1108 218.903 59.6677 219.634 58.9558C219.855 58.7442 220.154 58.648 220.5 58.6865C221.029 58.7346 221.626 59.0713 222.164 59.5138C221.298 57.8398 220.134 55.2231 220.538 53.8089C220.654 53.4144 220.875 53.1258 221.212 52.9526C221.799 52.6544 222.347 52.6255 222.838 52.8564C223.28 53.0681 223.617 53.4721 223.867 53.8954C223.867 53.1258 223.973 52.2311 224.406 51.6731C224.666 51.3364 225.022 51.144 225.454 51.1151C225.945 51.0766 226.359 51.2306 226.696 51.548C227.1 51.9425 227.321 52.539 227.436 53.0873C227.571 52.741 227.763 52.3946 228.052 52.1541C228.341 51.9136 228.677 51.8174 229.062 51.8655C229.178 51.8848 229.264 51.9906 229.245 52.106C229.226 52.2215 229.12 52.3081 229.004 52.2888C228.735 52.26 228.514 52.3177 228.321 52.4812C227.667 53.0296 227.561 54.4342 227.561 54.4534C227.552 54.5689 227.456 54.6458 227.34 54.6555C227.225 54.6458 227.138 54.5496 227.138 54.4342C227.138 54.4149 227.186 52.6159 226.397 51.8559C226.147 51.6154 225.849 51.5096 225.474 51.5384C225.156 51.5577 224.916 51.6923 224.733 51.9329C223.973 52.9141 224.406 55.2904 224.415 55.3193C224.435 55.4347 224.367 55.5405 224.252 55.5694C224.136 55.5983 224.031 55.5213 224.002 55.4059C224.002 55.3866 223.627 53.703 222.655 53.2412C222.28 53.0681 221.876 53.0969 221.404 53.3278C221.173 53.4433 221.029 53.6357 220.942 53.9243C220.384 55.8773 223.348 60.7741 223.386 60.8222C223.444 60.9184 223.415 61.0435 223.319 61.1108C223.223 61.1782 223.097 61.1493 223.03 61.0531C222.424 60.1776 221.27 59.1867 220.461 59.1001C220.231 59.0809 220.057 59.129 219.932 59.2541C219.442 59.7255 220.375 61.2551 221.366 62.881C221.674 63.3909 221.991 63.9104 222.309 64.4588C223.742 66.9601 226.676 69.7019 226.705 69.7308C226.782 69.7981 226.792 69.9232 226.734 70.0098C216.902 84.3443 208.08 100.17 217.21 108.934C225.329 116.727 243.897 104.153 244.089 104.028C244.186 103.961 244.32 103.989 244.388 104.086C244.455 104.182 244.426 104.317 244.33 104.384C244.282 104.413 239.539 107.645 233.844 109.848C230.274 111.234 227.1 111.917 224.377 111.917Z" fill="#1F2937"/>
<path d="M227.553 71.8186C227.466 71.8186 227.389 71.7705 227.351 71.6839C227.129 71.0971 226.822 70.568 226.427 70.0869C226.35 70.0003 226.369 69.8657 226.456 69.7887C226.543 69.7117 226.677 69.731 226.754 69.8176C227.178 70.3274 227.514 70.9047 227.755 71.53C227.793 71.6358 227.745 71.7609 227.63 71.7994C227.601 71.809 227.572 71.8186 227.553 71.8186Z" fill="#1F2937"/>
<path d="M222.791 72.1088L227.081 66.3461C228.727 64.1237 231.093 62.5364 233.797 61.8341C236.596 61.1029 239.04 59.4193 240.685 57.0815L244.389 51.8384L235.047 41.8715L231.343 47.1147C229.689 49.4525 227.255 51.1361 224.455 51.8672C221.752 52.5695 219.385 54.1569 217.74 56.3792L213.449 62.1419L222.791 72.1088Z" fill="white"/>
<path d="M222.791 72.3204C222.733 72.3204 222.675 72.2916 222.637 72.2531L213.295 62.2862C213.228 62.2093 213.218 62.0938 213.276 62.0169L217.567 56.2542C219.241 54.003 221.665 52.3771 224.397 51.6652C227.149 50.9533 229.554 49.2889 231.17 46.9993L234.874 41.7561C234.913 41.708 234.97 41.6695 235.028 41.6695C235.095 41.6695 235.153 41.6887 235.201 41.7368L244.543 51.7037C244.61 51.7806 244.62 51.8865 244.562 51.9731L240.858 57.2162C239.184 59.5925 236.692 61.3049 233.845 62.0457C231.199 62.7384 228.852 64.3065 227.245 66.4808L222.954 72.2435C222.916 72.2916 222.858 72.3204 222.8 72.33C222.8 72.3204 222.791 72.3204 222.791 72.3204ZM213.728 62.1227L222.772 71.7817L226.908 66.221C228.582 63.9698 231.007 62.344 233.739 61.632C236.49 60.9201 238.896 59.2558 240.512 56.9661L244.11 51.8672L235.067 42.2082L231.517 47.2398C229.843 49.616 227.351 51.3285 224.503 52.0693C221.858 52.7619 219.51 54.3301 217.904 56.5043L213.728 62.1227Z" fill="#1F2937"/>
<path d="M231.989 47.7979C230.334 50.1357 227.9 51.8193 225.101 52.5505C222.397 53.2528 220.031 54.8402 218.385 57.0625L214.807 61.8727L222.859 70.4735L226.438 65.6632C228.083 63.4409 230.45 61.8535 233.153 61.1512C235.953 60.42 238.396 58.7365 240.041 56.3987L243.072 52.1079L235.019 43.5072L231.989 47.7979Z" fill="currentColor" fill-opacity="0.3"/>
<path d="M231.056 60.2503C232.262 59.2078 232.031 56.9649 230.541 55.2405C229.05 53.5162 226.864 52.9634 225.658 54.0058C224.452 55.0483 224.683 57.2912 226.174 59.0156C227.665 60.74 229.851 61.2927 231.056 60.2503Z" fill="white"/>
<path d="M223.071 60.9399C223.619 61.5267 223.6 62.4407 223.013 62.9698C222.436 63.4989 221.512 63.4604 220.964 62.8736C220.415 62.2867 220.435 61.3728 221.021 60.8437C221.608 60.3145 222.522 60.353 223.071 60.9399Z" fill="white"/>
<path d="M236.263 53.0827C236.712 52.4367 236.538 51.5397 235.874 51.079C235.211 50.6184 234.31 50.7685 233.861 51.4144C233.412 52.0604 233.587 52.9574 234.25 53.4181C234.913 53.8788 235.815 53.7286 236.263 53.0827Z" fill="white"/>
<path d="M219.375 71.167L223.665 65.4043C225.311 63.182 227.677 61.5946 230.381 60.8923C233.18 60.1611 235.624 58.4776 237.269 56.1398L240.973 50.8966L231.631 40.9297L227.927 46.1729C226.273 48.5107 223.839 50.1943 221.039 50.9255C218.336 51.6277 215.969 53.2151 214.324 55.4375L210.033 61.2002L219.375 71.167Z" fill="white"/>
<path d="M219.375 71.3788C219.317 71.3788 219.259 71.35 219.221 71.3115L209.879 61.3446C209.812 61.2677 209.802 61.1522 209.86 61.0753L214.151 55.3126C215.825 53.0614 218.249 51.4355 220.981 50.7236C223.733 50.0117 226.138 48.3473 227.754 46.0577L231.458 40.8145C231.497 40.7664 231.554 40.7279 231.612 40.7279C231.679 40.7279 231.737 40.7471 231.785 40.7952L241.127 50.7621C241.194 50.8391 241.204 50.9449 241.146 51.0315L237.442 56.2746C235.768 58.6509 233.276 60.3634 230.429 61.1041C227.783 61.7968 225.436 63.365 223.829 65.5392L219.538 71.3019C219.5 71.35 219.442 71.3788 219.384 71.3885C219.384 71.3788 219.384 71.3788 219.375 71.3788ZM210.312 61.1811L219.356 70.8401L223.492 65.2794C225.166 63.0282 227.591 61.4024 230.323 60.6905C233.074 59.9785 235.48 58.3142 237.096 56.0245L240.694 50.9256L231.651 41.2667L228.101 46.2982C226.427 48.6744 223.935 50.3869 221.087 51.1277C218.442 51.8203 216.094 53.3885 214.488 55.5627L210.312 61.1811Z" fill="#1F2937"/>
<path d="M228.581 46.8559C226.926 49.1937 224.492 50.8772 221.692 51.6084C218.989 52.3107 216.622 53.8981 214.977 56.1204L211.398 60.9307L219.451 69.5314L223.03 64.7211C224.675 62.4988 227.041 60.9114 229.745 60.2091C232.544 59.478 234.988 57.7944 236.633 55.4566L239.663 51.1659L231.611 42.5651L228.581 46.8559Z" fill="currentColor" fill-opacity="0.3"/>
<path d="M227.634 59.3194C228.839 58.2771 228.609 56.0343 227.118 54.3099C225.628 52.5856 223.442 52.0327 222.236 53.075C221.03 54.1173 221.261 56.3601 222.752 58.0844C224.242 59.8088 226.428 60.3617 227.634 59.3194Z" fill="white"/>
<path d="M219.81 61.8003C220.259 61.1545 220.085 60.2574 219.421 59.7967C218.758 59.3359 217.857 59.486 217.408 60.1318C216.959 60.7776 217.133 61.6747 217.797 62.1355C218.46 62.5962 219.361 62.4462 219.81 61.8003Z" fill="white"/>
<path d="M232.847 52.1375C233.296 51.4916 233.122 50.5945 232.458 50.1339C231.795 49.6732 230.894 49.8234 230.445 50.4693C229.996 51.1152 230.171 52.0123 230.834 52.473C231.497 52.9336 232.399 52.7834 232.847 52.1375Z" fill="white"/>
<path d="M213.563 56.4347C213.563 56.4347 212.091 51.0761 216.151 50.6624C216.151 50.6624 215.987 48.8923 218.286 48.6325C218.286 48.6325 218.133 47.276 220.345 47.1125C220.345 47.1125 220.807 46.1697 223.241 46.314C225.675 46.4583 228.927 47.9398 227.349 49.9409C227.349 49.9409 228.042 51.2204 226.474 51.6726C226.474 51.6726 226.06 53.4813 224.242 53.4909C224.242 53.4909 224.088 54.8762 221.654 54.8185C219.22 54.7704 215.776 54.02 215.776 54.02L213.563 56.4347Z" fill="white"/>
<path d="M213.563 56.6467C213.544 56.6467 213.534 56.6467 213.515 56.6371C213.438 56.6178 213.38 56.5601 213.361 56.4831C213.332 56.3581 212.562 53.5008 213.765 51.7402C214.246 51.0283 214.987 50.605 215.949 50.4703C215.987 49.9701 216.257 48.7194 218.084 48.45C218.104 48.2576 218.181 47.969 218.412 47.69C218.777 47.2475 219.383 46.9877 220.23 46.9107C220.442 46.6414 221.173 45.9776 223.251 46.1026C225.05 46.2084 227.262 47.0069 227.83 48.2768C228.003 48.6617 228.09 49.2581 227.58 49.9701C227.667 50.1817 227.792 50.6146 227.609 51.0476C227.455 51.4131 227.128 51.6825 226.627 51.8461C226.493 52.2597 225.944 53.597 224.386 53.7028C224.251 54.1165 223.712 55.0785 221.625 55.0401C219.451 54.992 216.459 54.3955 215.833 54.2608L213.717 56.5697C213.678 56.6178 213.621 56.6467 213.563 56.6467ZM222.76 46.5067C220.942 46.5067 220.538 47.1994 220.538 47.209C220.499 47.2763 220.442 47.3148 220.365 47.3244C219.605 47.3821 219.037 47.5938 218.748 47.9498C218.479 48.2672 218.508 48.6039 218.508 48.6136C218.517 48.729 218.431 48.8348 218.325 48.8445C216.276 49.0754 216.372 50.5761 216.382 50.6435C216.391 50.7589 216.305 50.8648 216.189 50.8744C215.266 50.9706 214.573 51.3458 214.13 51.9904C213.274 53.2314 213.534 55.1748 213.698 55.9925L215.631 53.876C215.679 53.8183 215.756 53.799 215.833 53.8086C215.872 53.8183 219.277 54.5494 221.663 54.6071C223.857 54.6552 224.03 53.5104 224.04 53.4623C224.049 53.3565 224.145 53.2795 224.251 53.2795C225.877 53.2699 226.262 51.6921 226.281 51.6248C226.3 51.5478 226.358 51.4901 226.425 51.4709C226.858 51.3458 227.128 51.1534 227.243 50.884C227.407 50.4896 227.176 50.047 227.176 50.047C227.137 49.9701 227.147 49.8835 227.195 49.8161C227.57 49.3447 227.657 48.8829 227.464 48.45C226.983 47.3918 224.905 46.6221 223.241 46.5259C223.058 46.5067 222.904 46.5067 222.76 46.5067Z" fill="#1F2937"/>
<path d="M224.137 53.3851C224.088 53.3851 224.05 53.3754 224.011 53.3466C221.885 51.7784 219.259 50.9222 216.613 50.9222C216.594 50.9222 216.584 50.9222 216.565 50.9222C216.45 50.9222 216.354 50.826 216.354 50.7106C216.354 50.5951 216.45 50.4989 216.565 50.4989C219.307 50.4893 222.049 51.3744 224.262 53.0099C224.358 53.0772 224.377 53.2119 224.31 53.3081C224.262 53.3562 224.204 53.3851 224.137 53.3851Z" fill="#1F2937"/>
<path d="M226.329 51.4137C226.281 51.4137 226.233 51.3945 226.194 51.3656C224.097 49.6916 221.355 48.8162 218.671 48.9605C218.556 48.9701 218.45 48.8739 218.45 48.7584C218.44 48.643 218.536 48.5372 218.652 48.5372C221.432 48.3833 224.28 49.2972 226.464 51.0385C226.56 51.1155 226.57 51.2405 226.493 51.3367C226.454 51.3848 226.396 51.4137 226.329 51.4137Z" fill="#1F2937"/>
<path d="M227.148 49.8258C227.1 49.8258 227.051 49.8065 227.013 49.7777C225.262 48.3346 223.049 47.4976 220.779 47.4399C220.663 47.4399 220.567 47.3437 220.577 47.2186C220.577 47.1032 220.673 47.0166 220.798 47.0166C223.165 47.0839 225.464 47.9498 227.292 49.4506C227.379 49.5276 227.398 49.6622 227.321 49.7488C227.273 49.7969 227.205 49.8258 227.148 49.8258Z" fill="#1F2937"/>
<path d="M239.164 66.7681C238.982 64.0263 237.923 61.9579 237.202 60.2166C236.038 57.4362 235.278 54.223 233.662 54.7425C232.045 55.2524 233.315 59.697 233.315 59.697C233.315 59.697 233.508 60.8707 233.344 61.6596C233.181 62.4389 232.459 63.4779 232.459 63.4779L239.164 66.7681Z" fill="white"/>
<path d="M239.164 66.9798C239.059 66.9798 238.962 66.8932 238.953 66.7778C238.799 64.4496 238.01 62.641 237.317 61.0343C237.211 60.7842 237.106 60.5341 237 60.2936C236.769 59.7356 236.548 59.1583 236.336 58.5907C235.528 56.4357 234.825 54.579 233.719 54.9349C232.555 55.3005 233.171 58.4464 233.507 59.6297C233.507 59.6394 233.507 59.649 233.517 59.6586C233.527 59.7067 233.71 60.8804 233.536 61.6982C233.363 62.5159 232.642 63.5453 232.613 63.5934C232.545 63.6896 232.411 63.7088 232.315 63.6415C232.218 63.5742 232.199 63.4395 232.266 63.3433C232.276 63.3336 232.969 62.3427 233.123 61.6116C233.267 60.9189 233.113 59.8606 233.094 59.7452C232.94 59.2161 231.834 55.0985 233.584 54.5405C235.076 54.0691 235.836 56.099 236.73 58.456C236.942 59.014 237.154 59.5913 237.394 60.1396C237.49 60.3801 237.596 60.6207 237.712 60.8708C238.385 62.4197 239.222 64.3534 239.376 66.7585C239.386 66.874 239.299 66.9798 239.174 66.9798H239.164Z" fill="#1F2937"/>
<path d="M231.333 65.3919C231.294 65.3919 231.256 65.3823 231.217 65.3534C231.121 65.2861 231.092 65.161 231.16 65.0648L232.276 63.3524C232.343 63.2562 232.468 63.2273 232.564 63.2946C232.661 63.362 232.689 63.487 232.622 63.5833L231.506 65.2957C231.468 65.363 231.4 65.3919 231.333 65.3919Z" fill="#1F2937"/>
<path d="M263.995 50.8157C263.995 50.8157 254.769 48.7089 253.643 57.2807C252.518 65.8526 257.482 68.6233 255.24 69.7393C252.989 70.8649 254.586 77.8013 260.349 77.657C266.111 77.5126 271.268 75.9541 276.367 77.657C280.446 79.0134 284.515 77.8109 285.131 72.6447C285.602 68.7099 281.292 69.0851 281.995 65.5736C282.697 62.0621 285.352 58.137 281.389 55.0295C278.387 52.6917 277.723 54.7698 275.251 51.6527C272.191 47.8142 268.074 46.7367 263.995 50.8157Z" fill="#1F2937"/>
<path d="M272.365 68.1127L274.366 84.1308C274.366 84.1308 270.142 87.5557 262.821 86.6899C255.5 85.824 263.033 81.3409 263.033 81.3409L262.099 70.4793L272.365 68.1127Z" fill="white"/>
<path d="M274.356 84.3426C274.25 84.3426 274.163 84.2657 274.144 84.1598L272.172 68.3822L262.32 70.643L263.234 81.3218C263.244 81.4372 263.157 81.5431 263.042 81.5527C262.926 81.5623 262.821 81.4757 262.811 81.3603L261.878 70.4987C261.868 70.3929 261.936 70.2967 262.041 70.2774L272.306 67.9204C272.364 67.9108 272.422 67.9204 272.48 67.9493C272.528 67.9878 272.557 68.0359 272.566 68.0936L274.567 84.1117C274.587 84.2272 274.5 84.333 274.385 84.3522C274.375 84.3426 274.365 84.3426 274.356 84.3426Z" fill="#1F2937"/>
<path d="M256.632 62.1974C256.286 64.4582 256.228 67.3925 257.027 69.5379C257.835 71.6832 259.461 73.5592 261.577 74.3193C263.415 74.9735 265.493 74.7522 267.273 73.9344C269.052 73.1167 270.543 71.7506 271.756 70.1921C273.699 70.8366 276.018 69.9612 277.076 68.1814C277.692 67.152 277.874 65.8147 277.326 64.7469C276.778 63.6886 275.383 63.0825 274.334 63.6213C273.738 63.9291 273.324 64.5352 272.708 64.8238C272.025 65.1413 267.994 63.2749 266.128 61.168C264.81 59.6768 263.27 56.858 262.712 55.5881C262.289 56.5694 261.356 58.5416 260.375 59.6191C259.23 60.889 257.95 61.5913 256.632 62.1974Z" fill="white"/>
<path d="M263.867 74.9155C263.05 74.9155 262.251 74.7808 261.52 74.5211C259.471 73.7899 257.72 71.9524 256.844 69.6146C255.854 66.9786 256.229 63.5345 256.44 62.1684C256.45 62.101 256.498 62.0337 256.556 62.0048C257.989 61.341 259.163 60.6579 260.241 59.4746C261.299 58.3202 262.27 56.1459 262.54 55.5013C262.569 55.4244 262.646 55.3763 262.732 55.3763C262.828 55.3763 262.896 55.4244 262.925 55.5013C263.454 56.6847 264.983 59.5227 266.311 61.0235C268.177 63.14 272.112 64.8717 272.641 64.6312C272.93 64.4965 273.18 64.2752 273.44 64.0444C273.69 63.8231 273.95 63.5922 274.258 63.4286C275.374 62.8514 276.903 63.419 277.529 64.6408C278.077 65.6991 277.981 67.0941 277.269 68.2774C276.191 70.086 273.834 71 271.843 70.4228C270.496 72.1256 268.995 73.3666 267.369 74.1074C266.234 74.6462 265.032 74.9155 263.867 74.9155ZM256.825 62.3415C256.623 63.7365 256.296 66.9882 257.229 69.4607C258.066 71.683 259.721 73.4244 261.655 74.117C263.338 74.7231 265.359 74.5788 267.196 73.7418C268.793 73.0107 270.275 71.7696 271.602 70.0668C271.66 69.9994 271.756 69.9706 271.833 69.9994C273.671 70.6055 275.903 69.7686 276.903 68.085C277.529 67.0363 277.625 65.776 277.144 64.8621C276.624 63.8616 275.335 63.3709 274.44 63.8327C274.181 63.9674 273.95 64.1694 273.709 64.3907C273.44 64.6312 273.161 64.8813 272.814 65.0449C272.006 65.4201 267.879 63.4767 265.994 61.3314C264.781 59.9556 263.396 57.4928 262.742 56.1267C262.328 57.0406 261.472 58.7723 260.548 59.7825C259.442 60.9658 258.259 61.6777 256.825 62.3415Z" fill="#1F2937"/>
<path d="M272.364 68.325C272.335 68.325 272.306 68.3154 272.277 68.3058C272.171 68.2577 272.123 68.1326 272.162 68.0268C272.614 66.9589 273.72 66.2374 274.855 66.2374C274.875 66.2374 274.894 66.2374 274.913 66.2374C275.029 66.2374 275.125 66.3336 275.115 66.4586C275.115 66.5741 275.009 66.6703 274.894 66.6607C273.903 66.6318 272.931 67.2668 272.537 68.2C272.518 68.2769 272.441 68.325 272.364 68.325Z" fill="#1F2937"/>
<path d="M299.572 36.0568H296.195L286.353 44.8596L288.576 36.0568H272.586C270.749 36.0568 269.258 34.5656 269.258 32.7281V16.8543C269.258 15.0168 270.749 13.5256 272.586 13.5256H299.572C301.41 13.5256 302.901 15.0168 302.901 16.8543V32.7281C302.901 34.5656 301.41 36.0568 299.572 36.0568Z" fill="currentColor"/>
<path d="M286.074 32.4876C290.155 32.4876 293.463 29.1796 293.463 25.0991C293.463 21.0185 290.155 17.7105 286.074 17.7105C281.994 17.7105 278.686 21.0185 278.686 25.0991C278.686 29.1796 281.994 32.4876 286.074 32.4876Z" fill="white"/>
<path d="M286.15 29.0717C284.371 29.0717 282.774 28.0135 282.081 26.3684C282.033 26.2625 282.081 26.1375 282.196 26.0894C282.302 26.0413 282.427 26.0894 282.475 26.2048C283.101 27.6864 284.553 28.6484 286.16 28.6484C287.661 28.6484 289.017 27.8211 289.71 26.4934C289.768 26.3876 289.893 26.3491 289.999 26.4069C290.105 26.4646 290.143 26.5896 290.085 26.6955C289.306 28.1578 287.805 29.0717 286.15 29.0717Z" fill="currentColor"/>
<path d="M287.565 24.0603C287.45 24.0603 287.354 23.9641 287.354 23.8486V22.0111C287.354 21.8956 287.45 21.7994 287.565 21.7994C287.681 21.7994 287.777 21.8956 287.777 22.0111V23.8486C287.777 23.9641 287.681 24.0603 287.565 24.0603Z" fill="currentColor"/>
<path d="M284.593 24.0601C284.477 24.0601 284.381 23.9639 284.381 23.8484V22.0109C284.381 21.8955 284.477 21.7993 284.593 21.7993C284.708 21.7993 284.804 21.8955 284.804 22.0109V23.8484C284.804 23.9639 284.718 24.0601 284.593 24.0601Z" fill="currentColor"/>
<path d="M94.8204 189.312L93.1465 177.085L131.196 139.199C131.196 139.199 136.198 154.284 143.818 189.312H94.8204Z" fill="white"/>
<path d="M143.826 189.524C143.73 189.524 143.643 189.457 143.624 189.36C136.091 154.736 131.05 139.42 131.002 139.266C130.964 139.151 131.021 139.036 131.137 138.997C131.252 138.959 131.368 139.016 131.406 139.132C131.454 139.286 136.505 154.621 144.038 189.264C144.067 189.38 143.99 189.495 143.874 189.514C143.855 189.524 143.845 189.524 143.826 189.524Z" fill="#1F2937"/>
<path d="M119.65 189.312H58.2617C59.445 181.625 61.9656 160.98 61.9656 160.98L131.204 139.199L127.674 162.605L119.65 189.312Z" fill="white"/>
<path d="M58.2616 189.523C58.252 189.523 58.2424 189.523 58.2328 189.523C58.1173 189.504 58.0403 189.398 58.0596 189.283C59.2333 181.692 61.7346 161.162 61.7539 160.96C61.7635 160.845 61.8693 160.758 61.9944 160.777C62.1098 160.787 62.1964 160.893 62.1772 161.018C62.1483 161.22 59.647 181.76 58.4733 189.36C58.454 189.446 58.3578 189.523 58.2616 189.523Z" fill="#1F2937"/>
<path d="M103.786 189.524C103.67 189.524 103.574 189.427 103.574 189.312V172.62C103.574 170.494 104.459 168.426 106.008 166.944L110.636 162.519C110.722 162.442 110.857 162.442 110.934 162.528C111.011 162.615 111.011 162.75 110.924 162.827L106.297 167.252C104.835 168.657 103.998 170.61 103.998 172.62V189.312C103.998 189.427 103.901 189.524 103.786 189.524Z" fill="#1F2937"/>
<path d="M103.698 68.2562L100.331 67.8906L101.216 56.423C101.274 53.0846 99.109 50.1119 95.9535 49.1595C92.9038 48.2455 89.5655 49.4192 87.728 52.0649C87.0449 57.5293 86.3619 62.9938 85.6788 68.4582L82.5137 68.8527C82.5137 68.8527 84.4185 77.5015 93.4522 77.4822C101.139 77.4726 103.833 73.4897 103.698 68.2562Z" fill="white"/>
<path d="M83.8022 68.901C83.6964 68.901 83.6098 68.824 83.5906 68.7182C83.5713 68.6028 83.6579 68.4969 83.7734 68.4777L85.4954 68.266L87.4676 52.4884C87.4676 52.4596 87.4773 52.4307 87.4965 52.4115C89.2186 49.4387 92.7204 48.0245 96.0203 48.9673C99.3393 49.9101 101.562 52.9887 101.437 56.4424L100.561 67.7177L102.341 67.9101C102.456 67.9197 102.543 68.0255 102.524 68.141C102.514 68.2564 102.408 68.343 102.293 68.3238L100.311 68.1121C100.196 68.1025 100.119 67.9967 100.119 67.8812L101.004 56.4136C101.129 53.1619 99.0219 50.2661 95.8952 49.3714C92.7974 48.4863 89.5072 49.8139 87.8813 52.5846L85.8995 68.4873C85.8899 68.5835 85.8129 68.6605 85.7167 68.6701L83.8311 68.9106C83.8215 68.901 83.8118 68.901 83.8022 68.901Z" fill="#1F2937"/>
<path d="M103.19 36.364C103.19 36.364 110.29 48.938 103.845 54.7873C97.4085 60.6269 90.7223 55.6146 89.7025 53.0652C89.7025 53.0652 85.9505 41.511 103.19 36.364Z" fill="white"/>
<path d="M97.4171 57.7122C96.6859 57.7122 96.0221 57.616 95.4449 57.4813C92.2509 56.7405 90.0382 54.499 89.4994 53.1425C89.4417 52.9693 88.2584 49.1788 90.4903 44.9266C92.5587 40.9918 96.8014 38.0479 103.122 36.1527C103.218 36.1238 103.314 36.1623 103.363 36.2489C103.382 36.2777 105.162 39.4621 106.124 43.3199C107.413 48.4669 106.672 52.4883 103.978 54.9319C101.621 57.0869 99.3123 57.7122 97.4171 57.7122ZM103.084 36.6144C96.9649 38.4712 92.857 41.3285 90.8655 45.1286C88.7202 49.2269 89.8939 52.9597 89.9035 52.9982C90.3941 54.22 92.5299 56.375 95.5507 57.0676C97.5422 57.5294 100.563 57.4717 103.709 54.624C109.568 49.3039 103.844 38.0383 103.084 36.6144Z" fill="#1F2937"/>
<path d="M85.3523 48.9582C83.5725 46.1779 81.7927 43.3976 80.0129 40.6172C79.7531 40.1554 78.2812 37.4713 79.2914 34.2292C80.0995 31.6221 82.014 30.2752 82.5816 29.9L91.8557 23.7621C92.7985 23.1368 94.0684 23.5793 94.4244 24.6568C94.7804 25.7247 96.0503 26.1672 96.9931 25.5419L101.216 22.7423C102.458 21.915 104.093 22.9732 103.852 24.4452L103.766 24.9647C103.583 26.0614 104.487 27.0427 105.603 26.9465L109.586 26.6675C110.933 26.552 111.886 27.9759 111.241 29.1784C109.115 32.8054 106.989 36.4323 104.863 40.0689C104.305 38.8374 103.737 37.606 103.179 36.365C102.275 36.6151 101.024 37.0192 99.5906 37.6445C98.1475 38.2698 96.2427 39.1068 94.3859 40.6653C93.2699 41.5889 91.4517 43.3783 90.0759 46.3799C89.845 46.1394 89.2678 45.6006 88.3539 45.3986C88.0653 45.3313 87.1513 45.1292 86.3913 45.5622C85.4485 46.1009 85.0059 47.4863 85.3523 48.9582Z" fill="#1F2937"/>
<path d="M89.6526 46.034C88.6521 45.2932 87.1898 44.9565 86.1893 45.6877C85.2272 46.3996 85.0925 47.7945 85.3523 48.949C85.5639 49.8918 85.9872 50.7865 86.5837 51.5465C86.8146 51.8352 87.0647 52.1141 87.3726 52.3258C87.9017 52.701 88.5559 52.8645 89.2101 52.9223C89.7873 52.98 90.3838 52.9608 90.9322 52.7683C91.4805 52.5663 91.9712 52.1623 92.1732 51.6235C92.558 50.6037 91.8365 49.4396 91.4902 48.4968C91.1342 47.5252 90.4896 46.6497 89.6526 46.034Z" fill="white"/>
<path d="M91.4902 48.5065C91.1342 47.5252 90.4896 46.6593 89.6526 46.034C88.6521 45.2932 87.1898 44.9565 86.1893 45.6877C85.2272 46.3996 85.0925 47.7945 85.3523 48.949C85.5639 49.8918 85.9872 50.7865 86.5837 51.5465C86.8146 51.8352 87.0647 52.1141 87.3726 52.3258C87.9017 52.701 88.5559 52.8645 89.2101 52.9223C89.7873 52.98 90.3838 52.9608 90.9322 52.7683L91.4902 48.5065Z" fill="white"/>
<path d="M89.7681 53.1726C89.5853 53.1726 89.3929 53.1629 89.1908 53.1437C88.3827 53.0667 87.7478 52.8551 87.2571 52.5087C86.9685 52.3067 86.7087 52.047 86.4297 51.691C85.814 50.9021 85.3715 49.9785 85.1502 49.0069C84.8905 47.8428 84.9867 46.3228 86.0642 45.5243C87.1802 44.6969 88.7772 45.1202 89.7777 45.8706C90.6339 46.5055 91.317 47.4195 91.6922 48.4393C91.7306 48.5451 91.6729 48.6702 91.5671 48.7086C91.4613 48.7471 91.3362 48.6894 91.2977 48.5836C90.9514 47.6408 90.3261 46.7942 89.5276 46.2073C88.6425 45.5531 87.2571 45.1683 86.3143 45.861C85.4004 46.5344 85.3234 47.8813 85.5639 48.9107C85.7756 49.8246 86.1892 50.6905 86.7568 51.4216C87.0166 51.7487 87.2475 51.9796 87.4976 52.1528C87.9305 52.4606 88.4982 52.6434 89.2293 52.7108C89.8835 52.7781 90.4126 52.73 90.8552 52.5665C90.961 52.528 91.0861 52.5857 91.1246 52.6915C91.163 52.7974 91.1053 52.9224 90.9995 52.9609C90.6435 53.1052 90.2395 53.1726 89.7681 53.1726Z" fill="#1F2937"/>
<path d="M88.1113 49.6991C89.1215 50.0166 90.0835 50.4976 90.9398 51.1229L88.1113 49.6991Z" fill="white"/>
<path d="M90.9408 51.3347C90.9023 51.3347 90.8542 51.3251 90.8157 51.2962C89.9691 50.6901 89.0359 50.2187 88.045 49.9012C87.9296 49.8627 87.8718 49.7473 87.9103 49.6318C87.9488 49.5164 88.0642 49.4587 88.1797 49.4972C89.2187 49.8243 90.1904 50.3149 91.0658 50.9499C91.162 51.0172 91.1813 51.1519 91.1139 51.2481C91.0755 51.2962 91.0081 51.3347 90.9408 51.3347Z" fill="#1F2937"/>
<path d="M167.346 78.9622C167.346 78.9622 168.722 68.6875 169.597 66.3594C169.597 66.3594 176.601 66.0419 176.495 62.6651C176.495 62.6651 180.074 61.8185 178.785 57.0467C178.785 57.0467 178.727 51.6111 177.024 51.1012C175.196 50.5625 174.34 51.842 174.994 54.555C174.994 54.555 172.127 55.7576 169.357 54.6416C168.501 54.2952 167.962 53.4967 167.971 52.6309C167.981 51.6304 168.039 50.3124 168.241 49.7544C168.587 48.8019 172.483 48.8885 172.406 46.416C172.329 43.9436 165.056 44.2707 164.056 45.6368C163.055 47.0029 156.427 56.4887 154.493 60.2311C152.569 63.9735 149.5 72.3722 149.5 72.3722C149.5 72.3722 150.933 75.9702 155.696 77.8943C160.467 79.7992 167.346 78.9622 167.346 78.9622Z" fill="white"/>
<path d="M163.796 79.3567C161.381 79.3567 158.187 79.1162 155.628 78.0772C150.847 76.1434 149.375 72.5935 149.317 72.4395C149.298 72.3914 149.298 72.3337 149.317 72.2856C149.346 72.199 152.415 63.8388 154.32 60.1253C156.254 56.3733 162.872 46.9067 163.892 45.5021C164.671 44.4439 168.587 43.9917 170.886 44.7036C172.301 45.1462 172.618 45.8677 172.628 46.3968C172.676 48.1189 170.992 48.7058 169.761 49.1387C169.164 49.3503 168.549 49.562 168.452 49.8217C168.298 50.2354 168.212 51.236 168.193 52.6309C168.183 53.4198 168.674 54.1317 169.443 54.4396C171.723 55.3535 174.109 54.6416 174.754 54.4203C174.407 52.8714 174.552 51.7555 175.167 51.1686C175.475 50.8704 176.062 50.5818 177.101 50.8896C178.881 51.4187 179.006 56.3252 179.016 57.0083C179.468 58.7111 179.372 60.1157 178.727 61.2028C178.092 62.2707 177.111 62.6844 176.726 62.819C176.63 65.9842 170.79 66.4941 169.77 66.5614C168.914 69.0724 167.587 78.8949 167.577 78.9911C167.567 79.0873 167.49 79.1643 167.394 79.1739C167.346 79.1835 165.855 79.3567 163.796 79.3567ZM149.75 72.353C149.981 72.8628 151.549 75.9703 155.792 77.6827C160.044 79.3952 166.095 78.8757 167.163 78.7698C167.346 77.3941 168.577 68.4759 169.405 66.2824C169.434 66.2055 169.511 66.1477 169.597 66.1477C169.665 66.1477 176.389 65.8014 176.293 62.6651C176.293 62.5689 176.36 62.4727 176.457 62.4535C176.466 62.4535 177.659 62.1552 178.361 60.9815C178.948 60.0002 179.025 58.6918 178.592 57.0948C178.592 57.0756 178.583 57.0564 178.583 57.0467C178.564 55.5748 178.246 51.6785 176.976 51.3033C176.514 51.1686 175.879 51.082 175.456 51.4861C174.946 51.9767 174.86 53.0446 175.206 54.5069C175.235 54.6031 175.177 54.709 175.081 54.7474C174.965 54.7955 172.108 55.9692 169.289 54.834C168.356 54.4588 167.769 53.593 167.779 52.6213C167.798 51.1397 167.885 50.1392 168.058 49.6678C168.221 49.2253 168.837 49.004 169.626 48.7346C170.857 48.3017 172.252 47.8207 172.214 46.4065C172.195 45.6945 171.415 45.3001 170.771 45.0981C168.529 44.4054 164.864 44.9057 164.248 45.7426C163.228 47.1376 156.629 56.5753 154.705 60.3081C152.896 63.8196 150.068 71.4871 149.75 72.353Z" fill="#1F2937"/>
<path d="M176.497 62.5313C176.391 62.5313 176.304 62.4543 176.285 62.3485C176.083 60.992 175.573 59.6547 174.794 58.481C174.515 58.0577 174.072 57.4805 173.437 57.3554C172.591 57.1919 171.773 57.923 171.561 58.6831C171.331 59.52 171.59 60.4244 171.821 61.2229C171.84 61.2806 171.831 61.3479 171.792 61.396C171.763 61.4441 171.706 61.4826 171.648 61.4922L168.425 61.9925C168.31 62.0118 168.204 61.9348 168.185 61.8193C168.165 61.7039 168.242 61.5981 168.358 61.5788L171.34 61.117C171.128 60.3474 170.907 59.4431 171.148 58.5772C171.417 57.6248 172.427 56.7397 173.505 56.9514C174.294 57.1053 174.813 57.7691 175.14 58.2501C175.948 59.4719 176.487 60.8669 176.699 62.2811C176.718 62.3966 176.631 62.5024 176.516 62.5216C176.516 62.5313 176.506 62.5313 176.497 62.5313Z" fill="#1F2937"/>
<path d="M174.302 57.702C174.206 57.702 174.119 57.6346 174.09 57.5288C173.965 56.9131 173.956 56.4224 174.071 55.9799C174.225 55.4027 174.61 54.9313 175.11 54.71C175.755 54.4214 176.601 54.5561 177.275 55.0467C177.611 55.2969 178.468 55.9703 178.968 56.942C179.026 57.0478 178.978 57.1728 178.881 57.2306C178.776 57.2883 178.65 57.2402 178.593 57.144C178.131 56.2589 177.342 55.6239 177.025 55.3931C176.467 54.989 175.784 54.8832 175.274 55.1044C174.889 55.2776 174.591 55.6432 174.475 56.0954C174.379 56.4706 174.379 56.8939 174.494 57.4422C174.514 57.5577 174.446 57.6731 174.331 57.6924C174.331 57.702 174.321 57.702 174.302 57.702Z" fill="#1F2937"/>
<path d="M108.45 68.1592C110.268 68.2939 114.559 68.9769 116.339 69.4002C125.902 71.6611 135.926 81.8107 142.343 85.3703C144.758 80.4157 147.288 75.9614 149.741 71.1319C151.252 73.3543 152.935 75.1725 158.352 76.5579C162.604 77.645 166.173 76.7022 168.53 75.5958C167.26 83.831 164.999 91.9122 161.805 99.6086C160.314 103.207 158.496 106.862 155.379 109.2C152.262 111.538 148.125 112.25 144.258 111.73C140.39 111.211 135.743 109.854 131.472 108.132C122.025 104.342 111.461 91.7583 111.461 91.7583C111.461 91.7583 111.153 76.2789 110.595 71.4013C110.499 70.7375 107.623 68.1015 108.45 68.1592Z" fill="currentColor"/>
<path d="M111.28 68.4095C108.778 67.9958 106.392 67.5917 103.718 67.5917C102.169 69.0444 93.9049 75.2304 93.9049 75.2304C93.9049 75.2304 83.4378 69.1791 82.5431 68.5249C69.2957 69.5832 60.9547 71.1898 53.951 79.7232C44.9366 90.7194 37.4133 111.404 39.6068 124.459C41.8003 137.514 47.8131 141.564 55.4806 144.075L55.1439 151.136C54.7687 158.958 62.5228 164.624 69.8729 161.902L131.146 139.236C134.128 138.129 135.687 134.868 134.667 131.857L125.046 103.428L111.28 68.4095Z" fill="currentColor"/>
<path d="M140.266 90.2002C140.237 90.2002 140.208 90.1906 140.17 90.181C140.064 90.1329 140.016 90.0078 140.074 89.902L141.969 85.9864C142.017 85.8806 142.142 85.8421 142.248 85.8902C142.354 85.9383 142.402 86.0634 142.344 86.1692L140.449 90.0848C140.42 90.1521 140.343 90.2002 140.266 90.2002Z" fill="#1F2937"/>
<path d="M88.4695 80.8398C88.4118 80.8398 88.3541 80.8206 88.3156 80.7725L78.9452 70.8441C78.8683 70.7575 78.8683 70.6229 78.9549 70.5459C79.0415 70.4689 79.1761 70.4689 79.2531 70.5555L88.4792 80.3299L92.6064 76.4433C92.6929 76.3663 92.8276 76.3663 92.9046 76.4529C92.9816 76.5395 92.9816 76.6742 92.895 76.7511L88.6139 80.7821C88.5754 80.8206 88.5273 80.8398 88.4695 80.8398Z" fill="#1F2937"/>
<path d="M99.8411 79.6658C99.8026 79.6658 99.7641 79.6561 99.7256 79.6273L95.0886 76.5872C94.9924 76.5199 94.9635 76.3948 95.0308 76.2986C95.0982 76.2024 95.2233 76.1735 95.3195 76.2409L99.7834 79.1655L106.508 69.5161C106.575 69.4199 106.71 69.4007 106.806 69.468C106.903 69.5354 106.922 69.6701 106.854 69.7663L100.005 79.5888C99.9662 79.6369 99.9084 79.6658 99.8411 79.6658Z" fill="#1F2937"/>
<path d="M62.398 145.22C60.3104 145.22 58.2131 145.057 56.1351 144.72C56.0197 144.701 55.9427 144.595 55.9619 144.48C55.9812 144.364 56.087 144.287 56.2024 144.306C66.506 145.98 77.2329 143.392 85.6316 137.226C85.7278 137.158 85.8625 137.178 85.9298 137.274C85.9971 137.37 85.9779 137.505 85.8817 137.572C79.08 142.546 70.7775 145.22 62.398 145.22Z" fill="#1F2937"/>
<path d="M57.79 123.728C57.713 123.728 57.6457 123.69 57.6072 123.622C57.5495 123.516 57.588 123.391 57.6842 123.334L74.2026 113.8C74.3084 113.742 74.4335 113.78 74.4912 113.877C74.5489 113.982 74.5104 114.107 74.4142 114.165L57.8958 123.699C57.867 123.718 57.8285 123.728 57.79 123.728Z" fill="#1F2937"/>
<path d="M63.0812 119.495C63.0715 119.495 63.0523 119.495 63.0427 119.495C62.9272 119.475 62.8503 119.36 62.8791 119.245L67.3238 97.5792C67.343 97.4637 67.4585 97.3868 67.5739 97.4156C67.6894 97.4349 67.7663 97.5503 67.7375 97.6658L63.2928 119.331C63.2736 119.427 63.187 119.495 63.0812 119.495Z" fill="#1F2937"/>
<path d="M125.258 104.265C125.172 104.265 125.085 104.208 125.056 104.121C125.027 104.025 124.97 103.852 124.893 103.611C124.671 102.919 124.258 101.639 123.594 99.6572C123.555 99.5418 123.613 99.4263 123.729 99.3878C123.844 99.3494 123.959 99.4071 123.998 99.5225C124.662 101.504 125.075 102.784 125.297 103.477C125.374 103.717 125.431 103.89 125.46 103.986C125.499 104.102 125.441 104.217 125.326 104.256C125.306 104.265 125.287 104.265 125.258 104.265Z" fill="#1F2937"/>
<path d="M170.26 74.0764C170.145 74.0764 170.049 73.9802 170.049 73.8648V60.069C170.049 57.2021 171.877 54.5853 174.715 53.402C174.821 53.3539 174.946 53.4116 174.994 53.5174C175.042 53.6232 174.984 53.7483 174.878 53.7964C172.204 54.9124 170.472 57.3752 170.472 60.069V73.8648C170.472 73.9802 170.376 74.0764 170.26 74.0764Z" fill="#1F2937"/>
<path d="M185.547 74.067C185.432 74.067 185.335 73.9708 185.335 73.8554V59.9826C185.335 56.4326 181.564 53.431 178.178 52.9596C178.062 52.9404 177.985 52.8346 177.995 52.7191C178.014 52.6037 178.12 52.5267 178.235 52.5363C181.795 53.0366 185.749 56.2114 185.749 59.9826V73.865C185.759 73.9708 185.662 74.067 185.547 74.067Z" fill="#1F2937"/>
<path d="M185.317 126.777L160.506 127.306L153.271 127.47L146.768 127.605L152.492 69.7084L182.075 69.7661L185.317 126.777Z" fill="white"/>
<path d="M152.089 74.0086C152.08 74.0086 152.08 74.0086 152.07 74.0086C151.955 73.999 151.868 73.8932 151.878 73.7777L152.282 69.689C152.291 69.5832 152.388 69.4966 152.493 69.4966L155.341 69.5062C155.457 69.5062 155.553 69.6024 155.553 69.7179C155.553 69.8333 155.457 69.9295 155.341 69.9295L152.686 69.9199L152.301 73.8162C152.291 73.922 152.205 74.0086 152.089 74.0086Z" fill="#1F2937"/>
<path d="M146.768 127.816C146.711 127.816 146.653 127.787 146.614 127.748C146.576 127.7 146.557 127.642 146.557 127.585L148.115 111.778C148.125 111.663 148.231 111.576 148.346 111.586C148.461 111.595 148.548 111.701 148.538 111.817L146.999 127.383L160.497 127.094C160.622 127.094 160.708 127.181 160.708 127.306C160.708 127.421 160.622 127.517 160.497 127.517L146.768 127.816Z" fill="#1F2937"/>
<path d="M206.23 126.325L160.504 127.306L155.338 69.7175L198.698 69.8041L206.23 126.325Z" fill="white"/>
<path d="M160.505 127.527C160.399 127.527 160.303 127.44 160.293 127.335L155.127 69.7366C155.117 69.6788 155.146 69.6211 155.185 69.573C155.223 69.5249 155.281 69.5057 155.339 69.5057L198.689 69.5923C198.794 69.5923 198.881 69.6692 198.9 69.775L206.433 126.296C206.443 126.353 206.423 126.411 206.385 126.459C206.346 126.507 206.289 126.536 206.231 126.536L160.505 127.527ZM155.569 69.929L160.697 127.094L205.99 126.113L198.506 70.0059L155.569 69.929Z" fill="#1F2937"/>
<path d="M167.192 74.0756C167.077 74.0756 166.98 73.9794 166.98 73.8639V59.5582C166.98 55.5657 170.482 52.2948 174.792 52.2563C174.908 52.2563 175.004 52.3525 175.004 52.4679C175.004 52.5834 174.908 52.6796 174.792 52.6796C170.713 52.7181 167.394 55.7966 167.394 59.5582V73.8639C167.404 73.9794 167.308 74.0756 167.192 74.0756Z" fill="#1F2937"/>
<path d="M182.451 74.0663C182.335 74.0663 182.239 73.9701 182.239 73.8547V59.4624C182.239 56.9899 180.777 54.7099 178.429 53.5169C178.323 53.4592 178.285 53.3341 178.333 53.2283C178.381 53.1225 178.516 53.084 178.622 53.1321C181.113 54.402 182.662 56.8264 182.662 59.4528V73.8451C182.662 73.9701 182.566 74.0663 182.451 74.0663Z" fill="#1F2937"/>
<path d="M125.979 82.1962H95.0976C94.6551 82.1962 94.2702 82.4848 94.1452 82.9081L82.4178 122.371C82.2254 123.006 82.7064 123.651 83.3702 123.651H114.252C114.695 123.651 115.079 123.362 115.204 122.939L126.941 83.4758C127.124 82.8312 126.653 82.1962 125.979 82.1962Z" fill="#1F2937"/>
<path d="M110.124 112.933C111.452 111.654 112.26 110.269 111.413 108.912C110.566 107.556 108.431 107.238 107.228 108.287C108.123 107.584 109.046 106.853 109.585 105.853C110.134 104.852 110.201 103.505 109.45 102.649C108.787 101.899 107.661 101.706 106.68 101.928C106.199 102.033 105.747 102.226 105.304 102.457C105.727 101.822 105.843 100.927 105.487 100.225C104.871 99.0414 103.38 98.5315 102.043 98.6854C100.715 98.8394 99.5125 99.5032 98.3484 100.167C90.5558 104.544 75.163 113.443 75.163 113.443C74.7589 115.656 82.869 133.473 85.938 136.456C87.9198 135.859 102.812 123.949 108.45 119.119C109.393 118.311 110.364 117.455 110.845 116.301C111.336 115.146 111.163 113.626 110.124 112.933Z" fill="white"/>
<path d="M96.1733 108.576C96.106 108.576 96.029 108.537 95.9906 108.479C95.9328 108.383 95.9617 108.248 96.0579 108.191C98.9056 106.44 101.753 104.612 104.534 102.755C104.63 102.688 104.764 102.717 104.832 102.813C104.899 102.909 104.87 103.044 104.774 103.111C101.994 104.977 99.1365 106.805 96.2888 108.556C96.2503 108.566 96.2118 108.576 96.1733 108.576Z" fill="#1F2937"/>
<path d="M99.7814 113.915C99.7141 113.915 99.6467 113.886 99.6082 113.828C99.5409 113.732 99.5601 113.597 99.6563 113.53L107.006 108.277C107.103 108.21 107.237 108.229 107.305 108.325C107.372 108.421 107.353 108.556 107.257 108.623L99.9065 113.876C99.868 113.905 99.8295 113.915 99.7814 113.915Z" fill="#1F2937"/>
<path d="M103.235 118.292C103.168 118.292 103.101 118.263 103.062 118.195C102.995 118.099 103.024 117.965 103.12 117.897C105.352 116.387 107.536 114.761 109.623 113.048C109.71 112.971 109.845 112.991 109.922 113.077C109.998 113.164 109.979 113.299 109.893 113.376C107.795 115.088 105.602 116.733 103.36 118.244C103.312 118.282 103.274 118.292 103.235 118.292Z" fill="#1F2937"/>
<path d="M72.2696 20.3446C74.1006 20.0881 75.3771 18.3959 75.1207 16.5648C74.8642 14.7337 73.1719 13.4572 71.3409 13.7137C69.5098 13.9701 68.2333 15.6624 68.4897 17.4935C68.7462 19.3246 70.4385 20.6011 72.2696 20.3446Z" fill="currentColor"/>
<path d="M62.7989 20.2858C64.5983 19.8609 65.7126 18.0577 65.2877 16.2583C64.8628 14.4588 63.0596 13.3445 61.2602 13.7694C59.4607 14.1943 58.3464 15.9975 58.7713 17.797C59.1962 19.5964 60.9994 20.7107 62.7989 20.2858Z" fill="white"/>
<path d="M62.0303 20.5988C60.0677 20.5988 58.4707 19.0018 58.4707 17.0392C58.4707 15.0766 60.0677 13.4796 62.0303 13.4796C63.9929 13.4796 65.5899 15.0766 65.5899 17.0392C65.5899 19.0018 63.9929 20.5988 62.0303 20.5988ZM62.0303 13.8933C60.2986 13.8933 58.894 15.2979 58.894 17.0296C58.894 18.7613 60.2986 20.1659 62.0303 20.1659C63.762 20.1659 65.1666 18.7613 65.1666 17.0296C65.1666 15.2979 63.762 13.8933 62.0303 13.8933Z" fill="#1F2937"/>
<path d="M53.0157 20.2869C54.8151 19.862 55.9294 18.0588 55.5045 16.2594C55.0796 14.4599 53.2764 13.3456 51.477 13.7705C49.6775 14.1954 48.5632 15.9986 48.9881 17.7981C49.413 19.5975 51.2162 20.7118 53.0157 20.2869Z" fill="white"/>
<path d="M52.2471 20.5979C50.2845 20.5979 48.6875 19.0009 48.6875 17.0383C48.6875 15.0757 50.2845 13.4787 52.2471 13.4787C54.2097 13.4787 55.8067 15.0757 55.8067 17.0383C55.8067 19.0009 54.2097 20.5979 52.2471 20.5979ZM52.2471 13.8924C50.5154 13.8924 49.1108 15.297 49.1108 17.0287C49.1108 18.7604 50.5154 20.1649 52.2471 20.1649C53.9788 20.1649 55.3834 18.7604 55.3834 17.0287C55.3834 15.297 53.9788 13.8924 52.2471 13.8924Z" fill="#1F2937"/>
<path d="M39.2214 70.9034C39.106 70.9034 39.0098 70.8072 39.0098 70.6918V17.0286C39.0098 16.9132 39.106 16.817 39.2214 16.817H47.1102C47.2257 16.817 47.3219 16.9132 47.3219 17.0286C47.3219 17.1441 47.2257 17.2403 47.1102 17.2403H39.4331V70.6918C39.4331 70.8168 39.3369 70.9034 39.2214 70.9034Z" fill="#1F2937"/>
<path d="M160.286 175.247H154.36C154.245 175.247 154.148 175.15 154.148 175.035C154.148 174.919 154.245 174.823 154.36 174.823H160.286C160.402 174.823 160.498 174.919 160.498 175.035C160.498 175.15 160.402 175.247 160.286 175.247Z" fill="#1F2937"/>
<path d="M190.697 175.247H165.145C165.03 175.247 164.934 175.15 164.934 175.035C164.934 174.919 165.03 174.823 165.145 174.823H190.697C190.813 174.823 190.909 174.919 190.909 175.035C190.909 175.15 190.813 175.247 190.697 175.247Z" fill="#1F2937"/>
<path d="M174.938 170.003H154.36C154.245 170.003 154.148 169.906 154.148 169.791C154.148 169.676 154.245 169.579 154.36 169.579H174.938C175.054 169.579 175.15 169.676 175.15 169.791C175.15 169.906 175.054 170.003 174.938 170.003Z" fill="#1F2937"/>
<path d="M190.696 170.003H180.21C180.094 170.003 179.998 169.906 179.998 169.791C179.998 169.676 180.094 169.579 180.21 169.579H190.696C190.811 169.579 190.908 169.676 190.908 169.791C190.908 169.906 190.811 170.003 190.696 170.003Z" fill="#1F2937"/>
<path d="M162.422 164.76H154.36C154.245 164.76 154.148 164.664 154.148 164.548V131.819C154.148 131.704 154.245 131.608 154.36 131.608C154.476 131.608 154.572 131.704 154.572 131.819V164.336H162.422C162.538 164.336 162.634 164.433 162.634 164.548C162.634 164.664 162.538 164.76 162.422 164.76Z" fill="#1F2937"/>
<path d="M190.697 164.76H168.772C168.657 164.76 168.561 164.664 168.561 164.548C168.561 164.433 168.657 164.337 168.772 164.337H190.697C190.813 164.337 190.909 164.433 190.909 164.548C190.909 164.664 190.813 164.76 190.697 164.76Z" fill="#1F2937"/>
<path d="M162.421 159.431C164.026 159.431 165.326 158.13 165.326 156.525C165.326 154.921 164.026 153.62 162.421 153.62C160.816 153.62 159.516 154.921 159.516 156.525C159.516 158.13 160.816 159.431 162.421 159.431Z" fill="currentColor" fill-opacity="0.3"/>
<path d="M162.421 150.945C164.026 150.945 165.326 149.645 165.326 148.04C165.326 146.436 164.026 145.135 162.421 145.135C160.816 145.135 159.516 146.436 159.516 148.04C159.516 149.645 160.816 150.945 162.421 150.945Z" fill="currentColor" fill-opacity="0.3"/>
<path d="M165.321 139.553C165.324 137.948 164.025 136.645 162.421 136.643C160.816 136.64 159.513 137.939 159.511 139.543C159.508 141.148 160.807 142.451 162.411 142.454C164.016 142.456 165.319 141.157 165.321 139.553Z" fill="currentColor" fill-opacity="0.3"/>
</svg>
