<svg width="79" height="85" viewBox="0 0 79 85" fill="none" xmlns="http://www.w3.org/2000/svg">
<g filter="url(#filter0_d_19118_631)">
<path fill-rule="evenodd" clip-rule="evenodd" d="M39.293 8C37.9797 8 36.6794 8.25866 35.4661 8.7612C34.2529 9.26375 33.1505 10.0003 32.2219 10.9289C31.2933 11.8575 30.5567 12.9599 30.0542 14.1732C29.5516 15.3864 29.293 16.6868 29.293 18L20.6259 18L16.042 54.6718C15.6441 57.855 18.1261 60.6667 21.3341 60.6667H57.2511C60.4591 60.6667 62.9412 57.855 62.5433 54.6718L57.9593 18H49.293C49.293 16.6868 49.0343 15.3864 48.5318 14.1732C48.0292 12.9599 47.2926 11.8575 46.364 10.9289C45.4355 10.0003 44.3331 9.26375 43.1198 8.7612C41.9065 8.25866 40.6062 8 39.293 8ZM45.293 18C45.293 17.2121 45.1378 16.4319 44.8362 15.7039C44.5347 14.9759 44.0928 14.3145 43.5356 13.7574C42.9785 13.2002 42.317 12.7583 41.5891 12.4567C40.8611 12.1552 40.0809 12 39.293 12C38.505 12 37.7248 12.1552 36.9969 12.4567C36.2689 12.7583 35.6075 13.2002 35.0503 13.7574C34.4932 14.3145 34.0512 14.9759 33.7497 15.7039C33.4482 16.4319 33.293 17.2121 33.293 18L45.293 18ZM42.0277 31.5386L40.5575 27.1281C40.1523 25.9125 38.4329 25.9125 38.0277 27.1281L36.5575 31.5386C35.7612 33.9274 33.8867 35.802 31.4979 36.5982L27.0873 38.0684C25.8718 38.4736 25.8718 40.193 27.0873 40.5982L31.4979 42.0684C33.8867 42.8647 35.7612 44.7392 36.5575 47.1281L38.0277 51.5386C38.4329 52.7542 40.1523 52.7542 40.5575 51.5386L42.0277 47.1281C42.824 44.7392 44.6985 42.8647 47.0873 42.0684L51.4979 40.5982C52.7135 40.193 52.7135 38.4736 51.4979 38.0684L47.0873 36.5982C44.6985 35.802 42.824 33.9274 42.0277 31.5386Z" fill="#7C3AED"/>
</g>
<defs>
<filter id="filter0_d_19118_631" x="0" y="0" width="78.5852" height="84.6665" filterUnits="userSpaceOnUse" color-interpolation-filters="sRGB">
<feFlood flood-opacity="0" result="BackgroundImageFix"/>
<feColorMatrix in="SourceAlpha" type="matrix" values="0 0 0 0 0 0 0 0 0 0 0 0 0 0 0 0 0 0 127 0" result="hardAlpha"/>
<feOffset dy="8"/>
<feGaussianBlur stdDeviation="8"/>
<feComposite in2="hardAlpha" operator="out"/>
<feColorMatrix type="matrix" values="0 0 0 0 0.486275 0 0 0 0 0.227451 0 0 0 0 0.929412 0 0 0 0.24 0"/>
<feBlend mode="normal" in2="BackgroundImageFix" result="effect1_dropShadow_19118_631"/>
<feBlend mode="normal" in="SourceGraphic" in2="effect1_dropShadow_19118_631" result="shape"/>
</filter>
</defs>
</svg>
