<svg width="216" height="145" viewBox="0 0 216 145" fill="none" xmlns="http://www.w3.org/2000/svg">
<path d="M27.0628 111.508L24.2531 139.952C24.0564 141.935 25.6147 143.651 27.6138 143.651H44.7082C46.1879 143.651 47.0379 141.966 46.1564 140.778L43.3073 136.937L46.18 110.894L27.0628 111.508Z" fill="#F8FAFC"/>
<path d="M44.7071 143.824H27.6126C26.613 143.824 25.6529 143.399 24.9839 142.659C24.3149 141.919 23.9843 140.927 24.0867 139.936L26.8964 111.492C26.9043 111.406 26.9751 111.343 27.0617 111.335L46.1788 110.721C46.2339 110.721 46.2812 110.737 46.3126 110.776C46.3441 110.815 46.3599 110.863 46.3599 110.91L43.495 136.89L46.3048 140.676C46.7534 141.282 46.8163 142.069 46.4858 142.738C46.1316 143.407 45.4548 143.824 44.7071 143.824ZM27.2191 111.673L24.4251 139.967C24.3385 140.865 24.6297 141.762 25.2357 142.431C25.8418 143.1 26.7075 143.485 27.6126 143.485H44.7071C45.3367 143.485 45.8798 143.147 46.1631 142.588C46.4464 142.029 46.3913 141.392 46.0136 140.888L43.1645 137.047C43.1409 137.016 43.1251 136.969 43.133 136.921L45.9821 111.075L27.2191 111.673Z" fill="#1F2937"/>
<path d="M33.0262 139.629C30.3031 139.629 27.572 139.33 24.9119 138.732C24.8174 138.708 24.7623 138.621 24.7781 138.527C24.8017 138.433 24.8961 138.377 24.9827 138.393C30.7674 139.692 36.8512 139.566 42.5809 138.023C42.6753 138 42.7698 138.055 42.7934 138.149C42.817 138.244 42.7619 138.338 42.6675 138.362C39.5272 139.204 36.2767 139.629 33.0262 139.629Z" fill="#1F2937"/>
<path d="M11.6222 105.928L0.509191 128.894C-0.136181 130.224 0.162894 131.821 1.24901 132.829L9.4893 140.479C11.6851 142.517 14.5736 143.651 17.5722 143.651H19.7916C21.0509 143.651 21.8616 142.32 21.2949 141.203L18.1625 135.048C18.1625 135.048 25.8833 116.931 31.0699 113.129L11.6222 105.928Z" fill="#F8FAFC"/>
<path d="M19.7986 143.824H17.5791C14.5254 143.824 11.6134 142.682 9.3782 140.605L1.13791 132.955C-0.0111704 131.892 -0.325986 130.223 0.358738 128.815L11.4717 105.849C11.5111 105.77 11.6055 105.731 11.6842 105.762L31.1398 112.964C31.2028 112.987 31.2421 113.042 31.25 113.105C31.2579 113.168 31.2343 113.231 31.1792 113.271C26.2602 116.875 18.9092 133.773 18.3662 135.04L21.4593 141.124C21.7505 141.706 21.7268 142.383 21.3884 142.934C21.0421 143.493 20.4518 143.824 19.7986 143.824ZM11.7078 106.14L0.665683 128.964C0.0517927 130.239 0.335127 131.735 1.36615 132.703L9.60644 140.353C11.7787 142.368 14.6041 143.477 17.5713 143.477H19.7907C20.318 143.477 20.806 143.21 21.0815 142.753C21.3569 142.305 21.3805 141.754 21.1444 141.281L18.012 135.127C17.9884 135.08 17.9884 135.024 18.0042 134.977C18.319 134.245 25.5676 117.332 30.7148 113.184L11.7078 106.14Z" fill="#1F2937"/>
<path d="M17.436 135.237C17.4281 135.237 17.4203 135.237 17.4124 135.237C11.5647 134.411 6.11839 131.263 2.4744 126.619C2.41143 126.54 2.42718 126.438 2.50588 126.375C2.58458 126.312 2.6869 126.328 2.74986 126.407C6.33876 130.987 11.6985 134.08 17.4675 134.899C17.5619 134.914 17.6249 135.001 17.617 135.095C17.5934 135.174 17.5226 135.237 17.436 135.237Z" fill="#1F2937"/>
<path d="M42.2597 48.915C42.3306 49.2062 47.9107 97.4517 48.1232 116.427C48.1232 116.427 25.425 120.418 6.41797 109.36L17.1768 94.7207V69.3387C17.1768 63.5146 18.6171 57.7771 21.3717 52.6377L23.3708 48.915H42.2597Z" fill="#F8FAFC"/>
<path d="M38.0807 117.301C36.9237 117.301 35.6881 117.277 34.3895 117.214C27.0228 116.86 16.1774 115.239 6.33154 109.509C6.29219 109.485 6.26071 109.446 6.25284 109.391C6.24497 109.344 6.25284 109.296 6.28432 109.249L17.0117 94.6575V69.3385C17.0117 63.5065 18.4677 57.6982 21.2302 52.5588L23.2293 48.8361C23.2607 48.7811 23.3158 48.7417 23.3788 48.7417H42.2677C42.3464 48.7417 42.4173 48.7968 42.433 48.8755C42.4881 49.0959 48.084 97.2784 48.2965 116.427C48.2965 116.514 48.2335 116.584 48.1548 116.6C48.1076 116.6 44.0779 117.301 38.0807 117.301ZM6.66997 109.304C16.4135 114.916 27.1172 116.514 34.4052 116.868C41.646 117.214 47.0136 116.435 47.9502 116.285C47.714 97.6326 42.4566 51.9528 42.1103 49.0959H23.4811L21.5293 52.732C18.7982 57.8241 17.3501 63.5695 17.3501 69.3464V94.7205C17.3501 94.7599 17.3343 94.7913 17.3186 94.8228L6.66997 109.304Z" fill="#1F2937"/>
<path d="M34.2022 67.2529C35.4142 77.0673 39.9948 86.6062 38.8772 96.4285C38.1059 103.213 34.5012 109.666 29.0234 114.042L34.2022 67.2529Z" fill="#F8FAFC"/>
<path d="M29.0307 114.216C28.9834 114.216 28.9283 114.192 28.8969 114.153C28.8339 114.074 28.8496 113.972 28.9205 113.909C34.3747 109.548 37.9399 103.166 38.7112 96.4128C39.4038 90.2896 37.8455 84.1507 36.3344 78.2086C35.4293 74.6433 34.4848 70.9521 34.0362 67.2766C34.0205 67.1821 34.0913 67.0956 34.1858 67.0798C34.2802 67.0641 34.3668 67.1349 34.3825 67.2294C34.8311 70.8812 35.7677 74.5646 36.6728 78.1141C38.1918 84.0799 39.758 90.2581 39.0575 96.4364C38.2784 103.284 34.6659 109.745 29.1408 114.168C29.1015 114.2 29.07 114.216 29.0307 114.216Z" fill="#1F2937"/>
<path d="M5.25335 33.9611C5.5603 30.4745 7.90568 27.531 10.3061 24.9888C15.5163 19.4717 21.4978 14.7022 27.8256 10.4994C29.6673 9.27165 31.5877 8.07536 33.7442 7.56378C35.9006 7.05221 38.3562 7.33554 40.009 8.8073C41.9608 10.5467 42.3465 13.4587 42.1734 16.0638C41.6933 23.58 37.5534 30.7736 31.2965 34.9685C26.4877 38.1953 20.5455 39.5727 14.7923 38.9902C10.6603 38.5652 4.66308 40.6352 5.25335 33.9611Z" fill="#1F2937"/>
<path d="M40.9549 26.2325C39.5776 25.5241 38.216 24.9732 36.8387 24.5718L37.5549 18.8422C37.5549 18.8422 35.1072 16.0875 32.7855 17.8584L30.9517 23.8399C29.3854 23.895 27.7563 24.1389 26.0327 24.5797C26.0327 24.5797 25.0174 24.7764 23.4512 25.414C25.529 26.5945 32.6595 29.9394 41.5924 26.5788C41.3799 26.4607 41.1595 26.3427 40.9549 26.2325Z" fill="#F8FAFC"/>
<path d="M40.4823 16.9691C40.4193 16.001 39.7267 12.9552 39.1601 11.4441C37.9716 13.7659 34.0128 15.7335 33.454 15.702C33.0605 15.6784 32.6985 15.4108 32.305 15.4501C31.7855 15.5052 31.4707 16.0955 31.4707 16.6228C31.4707 17.2603 31.8091 17.8899 32.3443 18.2362C32.8795 18.5825 33.5878 18.6455 34.1781 18.3936C34.729 19.4719 35.6814 20.3927 36.8619 20.6918C38.0425 20.9909 39.4277 20.558 40.0573 19.527C40.5138 18.7714 40.5374 17.8427 40.4823 16.9691Z" fill="#F8FAFC"/>
<path d="M37.6246 20.9594C37.357 20.9594 37.0815 20.9279 36.8218 20.8571C35.7199 20.5737 34.7361 19.7631 34.1065 18.6061C33.5005 18.8186 32.8079 18.7321 32.2648 18.3779C31.6745 17.9922 31.3125 17.3233 31.3125 16.6228C31.3125 16.0168 31.6824 15.3478 32.3042 15.2848C32.556 15.2534 32.7921 15.3399 33.0125 15.4186C33.1778 15.4737 33.3273 15.5288 33.4769 15.5367C33.9412 15.5603 37.8607 13.6399 39.0176 11.3733C39.0491 11.3103 39.1121 11.2788 39.1829 11.2788C39.2537 11.2788 39.3088 11.326 39.3324 11.389C39.8991 12.9001 40.5996 15.9538 40.6625 16.9612C40.7176 17.8191 40.7097 18.8029 40.2139 19.6136C39.6866 20.4557 38.6792 20.9594 37.6246 20.9594ZM34.1773 18.2126C34.2403 18.2126 34.3032 18.2441 34.3347 18.3071C34.9171 19.4483 35.8537 20.2511 36.9005 20.5186C38.0732 20.8177 39.3403 20.3612 39.907 19.4247C40.3477 18.7006 40.3556 17.7797 40.3084 16.977C40.2533 16.0797 39.6472 13.4038 39.1199 11.8533C37.7347 14.0728 34.1301 15.8672 33.4611 15.8672C33.4532 15.8672 33.4454 15.8672 33.4454 15.8672C33.2486 15.8594 33.0597 15.7885 32.8866 15.7334C32.6898 15.6626 32.5088 15.5997 32.3278 15.6233C31.9106 15.6705 31.6509 16.1742 31.6509 16.6228C31.6509 17.1973 31.9657 17.7719 32.4458 18.0946C32.9259 18.4094 33.5792 18.4645 34.1144 18.2362C34.1301 18.2205 34.1537 18.2126 34.1773 18.2126Z" fill="#1F2937"/>
<path d="M33.8001 17.7089C33.7371 17.7089 33.682 17.6774 33.6505 17.6223C33.4223 17.2288 32.9107 17.0163 32.4621 17.1264C32.3677 17.1501 32.2732 17.095 32.2496 17.0005C32.226 16.9061 32.2811 16.8116 32.3755 16.788C32.9658 16.6385 33.6427 16.9139 33.9496 17.4413C33.9968 17.52 33.9732 17.6301 33.8866 17.6774C33.8552 17.701 33.8237 17.7089 33.8001 17.7089Z" fill="#1F2937"/>
<path d="M40.988 41.8157L53.5648 51.3152L57.2875 39.8717C57.2875 39.8717 45.1671 27.2476 40.5 27.4679L40.988 41.8157Z" fill="#F8FAFC"/>
<path d="M53.5646 51.4883C53.5252 51.4883 53.4938 51.4725 53.4623 51.4568L40.8854 41.9572C40.8067 41.9021 40.791 41.7919 40.8539 41.7132C40.909 41.6345 41.0192 41.6188 41.0979 41.6817L53.4859 51.0318L57.0984 39.9188C56.0989 38.8878 45.0724 27.641 40.6414 27.641C40.6021 27.641 40.5627 27.641 40.5234 27.641C40.4289 27.6488 40.3502 27.5701 40.3423 27.4757C40.3345 27.3813 40.4132 27.3025 40.5076 27.2947C45.1984 27.0664 56.9253 39.2341 57.429 39.7535C57.4762 39.8007 57.4919 39.8637 57.4683 39.9266L53.7456 51.3702C53.7299 51.4253 53.6827 51.4646 53.6354 51.4804C53.6039 51.4804 53.5882 51.4883 53.5646 51.4883Z" fill="#1F2937"/>
<path d="M49.8965 45.8137L53.5247 51.1026C53.5247 51.1026 62.0641 54.2743 64.0868 50.8507C66.1567 47.3326 68.5729 42.6891 70.1627 37.8882C70.1627 37.8882 74.3183 37.6993 74.2553 35.5349C74.2553 35.5349 76.3646 35.0076 75.609 31.946C75.609 31.946 75.6956 28.3257 74.5702 28.1368C73.4447 27.94 72.9803 28.5932 73.366 30.3405C73.366 30.3405 71.6739 31.096 70.0211 30.3641C69.5095 30.1358 69.1947 29.6243 69.2025 29.0655C69.2104 28.428 69.2419 27.578 69.36 27.2159C69.5646 26.602 71.8785 26.6886 71.8313 25.0988C71.784 23.509 67.4632 23.6664 66.865 24.54C66.2669 25.4136 58.5854 36.8808 56.5706 41.2331C56.5627 41.2331 51.872 41.6424 49.8965 45.8137Z" fill="#F8FAFC"/>
<path d="M59.3891 53.6762C57.8308 53.6762 56.0993 53.1488 54.4622 52.1493C54.2576 52.0234 54.0451 51.866 53.8484 51.7164C53.691 51.5984 53.5335 51.4724 53.3683 51.3701C53.2896 51.315 53.2659 51.2127 53.321 51.1261C53.3761 51.0474 53.4784 51.0238 53.565 51.0789C53.7303 51.1891 53.8956 51.315 54.0609 51.441C54.2655 51.5905 54.4544 51.74 54.6433 51.8581C56.7447 53.141 58.9877 53.6211 60.7979 53.1646C62.1359 52.8262 63.1905 52.0234 63.9382 50.7562C66.6377 46.1757 68.6762 41.8233 69.9984 37.8252C70.022 37.7544 70.085 37.7071 70.1558 37.7071C70.1952 37.7071 74.1382 37.5025 74.0831 35.5349C74.0831 35.4562 74.1382 35.3775 74.2169 35.3618C74.2956 35.3381 76.153 34.8266 75.4447 31.9854C75.4447 31.9696 75.4368 31.9539 75.4368 31.9381C75.4683 30.6002 75.2479 28.4201 74.5396 28.302C74.1225 28.2312 73.8155 28.2863 73.6424 28.4752C73.3669 28.7585 73.3354 29.3724 73.5401 30.2932C73.5558 30.3719 73.5165 30.4585 73.4378 30.49C73.3669 30.5215 71.6512 31.2692 69.9512 30.5136C69.3845 30.2617 69.0225 29.6872 69.0225 29.0576C69.0303 28.0974 69.0854 27.4599 69.1956 27.1529C69.2979 26.8539 69.6993 26.7043 70.1558 26.5391C70.872 26.2793 71.6827 25.9803 71.659 25.0988C71.6433 24.6187 71.1239 24.3668 70.691 24.2409C69.3766 23.8553 67.3382 24.1465 67.0076 24.6344C66.6299 25.1853 59.3812 36.3456 56.54 41.7289C56.4928 41.8155 56.3905 41.847 56.3039 41.7997C56.2173 41.7525 56.1859 41.6502 56.2331 41.5636C59.0822 36.1724 66.3465 24.9886 66.7243 24.4377C67.2123 23.7215 69.5026 23.5326 70.7933 23.9103C71.7771 24.2015 71.9975 24.7131 72.0132 25.0909C72.0447 26.2242 71.0215 26.5941 70.2817 26.8617C69.9354 26.9877 69.5813 27.1215 69.534 27.2631C69.4475 27.5229 69.3924 28.1604 69.3845 29.0576C69.3766 29.5534 69.66 30.002 70.1007 30.1988C71.3993 30.7733 72.753 30.3719 73.1702 30.2224C72.9734 29.2465 73.0442 28.5932 73.3905 28.2312C73.6503 27.9557 74.0595 27.8613 74.6026 27.9557C75.8146 28.1604 75.7989 31.4344 75.7831 31.9224C76.4442 34.6377 74.9016 35.4641 74.4294 35.653C74.3507 37.6599 70.9901 37.9983 70.2975 38.0456C68.9674 42.0358 66.9368 46.3724 64.2451 50.9294C63.4502 52.2752 62.3248 53.1331 60.8924 53.4951C60.4123 53.6211 59.9086 53.6762 59.3891 53.6762Z" fill="#1F2937"/>
<path d="M74.2487 35.4878C74.1621 35.4878 74.0913 35.4248 74.0756 35.3382C73.9575 34.4725 73.6584 33.6146 73.2019 32.8748C73.0367 32.6072 72.7848 32.2452 72.4228 32.1743C71.9506 32.072 71.4941 32.5206 71.3681 32.985C71.2343 33.5123 71.3839 34.0947 71.5177 34.5984C71.5334 34.6456 71.5256 34.6928 71.4941 34.7401C71.4705 34.7794 71.4232 34.8109 71.376 34.8188L68.8417 35.228C68.7473 35.2438 68.6607 35.1808 68.645 35.0864C68.6292 34.9919 68.6922 34.9053 68.7867 34.8896L71.132 34.5118C71.0061 34.0239 70.888 33.4493 71.0297 32.9063C71.195 32.2766 71.8168 31.6942 72.4936 31.8438C72.9816 31.9461 73.2964 32.3868 73.4931 32.7095C73.9732 33.4966 74.2959 34.3938 74.414 35.3067C74.4297 35.4012 74.3589 35.4878 74.2644 35.5035C74.2644 35.4878 74.2566 35.4878 74.2487 35.4878Z" fill="#1F2937"/>
<path d="M72.95 32.3867C72.8713 32.3867 72.7926 32.3316 72.7768 32.245C72.6981 31.8436 72.6981 31.5288 72.769 31.2455C72.8634 30.8677 73.0995 30.5529 73.4065 30.4112C73.8079 30.2223 74.3352 30.3089 74.7444 30.6394C75.0986 30.9228 75.3269 31.3163 75.5315 31.6626C75.5787 31.7413 75.5551 31.8515 75.4685 31.8987C75.3819 31.9459 75.2796 31.9223 75.2324 31.8357C75.0357 31.4973 74.831 31.1431 74.5241 30.907C74.2722 30.7024 73.8708 30.5686 73.5481 30.7181C73.3356 30.8205 73.1625 31.0487 73.0995 31.3242C73.0444 31.5603 73.0444 31.8279 73.1153 32.1742C73.131 32.2686 73.0759 32.3631 72.9815 32.3788C72.9736 32.3867 72.9657 32.3867 72.95 32.3867Z" fill="#1F2937"/>
<path d="M53.7916 35.9521C53.7916 35.9521 46.1022 29.097 41.0731 26.3266C32.5022 29.6479 25.5999 26.4919 23.5851 25.3743C19.9883 26.8618 13.3614 30.7497 9.63086 40.0447L21.9795 43.2794L20.6494 48.9146C20.8304 48.954 35.5717 51.4016 45.4411 49.7961L45.024 45.066L53.7916 35.9521Z" fill="currentColor"/>
<path d="M21.9096 42.6264C21.8938 42.6264 21.8781 42.6264 21.8624 42.6185C21.7679 42.5949 21.7207 42.4926 21.7443 42.406L23.5545 36.2671C23.5781 36.1727 23.6804 36.1255 23.767 36.1491C23.8614 36.1727 23.9087 36.275 23.885 36.3616L22.0749 42.5005C22.0512 42.5792 21.9804 42.6264 21.9096 42.6264Z" fill="#1F2937"/>
<path d="M45.0873 44.3735C45.0007 44.3735 44.922 44.3027 44.9142 44.2083L44.4498 37.3846C44.4419 37.2902 44.5128 37.2036 44.6072 37.2036C44.7095 37.2036 44.7882 37.2666 44.7882 37.361L45.2526 44.1846C45.2605 44.2791 45.1896 44.3657 45.0952 44.3657C45.0952 44.3735 45.0873 44.3735 45.0873 44.3735Z" fill="#1F2937"/>
<path d="M22.0532 43.2245C25.0912 41.1231 28.6643 38.7147 32.0565 37.243C35.4486 35.7712 39.1555 34.8976 42.8389 35.2282C44.3421 35.362 45.9949 35.842 46.9394 36.9282C47.4588 37.5263 47.0653 38.4865 46.2704 38.5416C44.8537 38.636 42.4769 38.1008 40.3361 38.5888C41.0759 38.6046 41.6819 39.4309 41.4694 40.1472C41.2648 40.8634 40.3361 41.249 39.675 40.9027C40.3361 41.1467 40.7296 41.9573 40.5093 42.6263C40.2889 43.2953 39.4861 43.7124 38.8092 43.5078C39.5569 43.7833 39.2028 45.0268 38.463 45.3337C37.731 45.6407 36.8731 45.4675 36.1018 45.68C34.9213 46.0106 34.1893 47.1518 33.5361 48.1907C28.4282 56.2264 18.7949 61.9403 11.8689 60.6416C5.20269 59.3824 6.39899 50.6856 10.3342 40.2022L22.0532 43.2245Z" fill="#F8FAFC"/>
<path d="M13.914 60.9958C13.1978 60.9958 12.4974 60.9328 11.8362 60.8069C10.0182 60.4685 8.68809 59.5634 7.87744 58.131C6.06725 54.9198 6.79919 49.0721 10.1048 40.2652C10.1362 40.1786 10.2386 40.1314 10.3251 40.1629C10.4117 40.1943 10.4589 40.2967 10.4274 40.3832C7.16123 49.0958 6.42141 54.8411 8.18438 57.9578C8.93994 59.2958 10.1913 60.1458 11.9071 60.4685C17.9909 61.6097 26.6641 57.1078 32.0631 49.993C32.1182 49.9143 32.2284 49.8985 32.3071 49.9615C32.3858 50.0166 32.4016 50.1268 32.3386 50.2055C29.7099 53.6606 26.2233 56.6435 22.5085 58.6032C19.5177 60.1694 16.5427 60.9958 13.914 60.9958Z" fill="#1F2937"/>
<path d="M12.4272 49.6624C12.3721 49.6624 12.317 49.6309 12.2777 49.5837C12.2226 49.505 12.2462 49.3948 12.3328 49.3476L19.7073 44.6096C20.3999 44.1217 21.1004 43.6258 21.8087 43.1379C21.8874 43.0828 21.9976 43.1064 22.0527 43.1772C22.1078 43.2559 22.0842 43.3661 22.0134 43.4212C21.3129 43.9092 20.6124 44.405 19.912 44.893L12.5295 49.6309C12.4981 49.6545 12.4587 49.6624 12.4272 49.6624Z" fill="#1F2937"/>
<path d="M103.99 57.4304L94.8993 48.6549C90.8775 44.7748 86.0136 41.9257 80.7011 40.3359L80.5752 40.2966C75.2784 38.7146 69.6511 38.7225 64.3622 40.3202C59.0969 41.9179 54.2723 44.7512 50.2742 48.6077L41.1445 57.4225L49.8807 66.8434L56.358 60.5943V92.5245H88.7604V60.5943L95.2456 66.8512L103.99 57.4304Z" fill="currentColor" fill-opacity="0.3"/>
<path d="M51.7383 103.85C54.3434 103.85 54.3434 105.353 56.9406 105.353C59.5457 105.353 59.5457 103.85 62.1508 103.85C64.7559 103.85 64.7559 105.353 67.361 105.353C69.9661 105.353 69.9661 103.85 72.5712 103.85C75.1763 103.85 75.1763 105.353 77.7814 105.353C80.3865 105.353 80.3865 103.85 82.9916 103.85C85.5967 103.85 85.5967 105.353 88.2018 105.353C90.8069 105.353 90.8069 103.85 93.412 103.85L88.7763 92.5244H56.3661L51.7383 103.85Z" fill="currentColor" fill-opacity="0.3"/>
<path d="M88.2321 92.8078L56.9316 92.7763C56.7899 92.7763 56.6719 92.6582 56.6719 92.5166C56.6719 92.3749 56.7899 92.2568 56.9316 92.2568L88.2321 92.2883C88.3738 92.2883 88.4919 92.4064 88.4919 92.548C88.4919 92.6897 88.3738 92.8078 88.2321 92.8078Z" fill="#F8FAFC"/>
<path d="M73.4743 46.5299C77.4124 46.5299 80.6049 45.1134 80.6049 43.366C80.6049 41.6187 77.4124 40.2021 73.4743 40.2021C69.5362 40.2021 66.3438 41.6187 66.3438 43.366C66.3438 45.1134 69.5362 46.5299 73.4743 46.5299Z" fill="#F8FAFC"/>
<path d="M73.4756 46.7031C69.383 46.7031 66.1719 45.2392 66.1719 43.3661C66.1719 41.4929 69.383 40.0291 73.4756 40.0291C77.5682 40.0291 80.7793 41.4929 80.7793 43.3661C80.7793 45.2392 77.5682 46.7031 73.4756 46.7031ZM73.4756 40.3753C69.7057 40.3753 66.5182 41.7448 66.5182 43.3661C66.5182 44.9874 69.7057 46.3568 73.4756 46.3568C77.2455 46.3568 80.433 44.9874 80.433 43.3661C80.433 41.7448 77.2455 40.3753 73.4756 40.3753Z" fill="#1F2937"/>
<path d="M73.4754 42.4689C73.3809 42.4689 73.3022 42.3902 73.3022 42.2957V39.8008C73.3022 38.0378 72.5545 36.3929 71.248 35.2832C70.398 34.5591 69.9416 33.4966 69.9967 32.3633C70.0911 30.5137 71.6494 29.0105 73.4754 29.0105C73.8768 29.0105 74.2624 29.0813 74.6244 29.2151C74.711 29.2466 74.7582 29.3489 74.7268 29.4355C74.6953 29.5221 74.593 29.5693 74.5064 29.5378C74.1837 29.4198 73.8374 29.3568 73.4754 29.3568C71.8383 29.3568 70.4295 30.7105 70.343 32.379C70.2879 33.4022 70.6971 34.3624 71.4684 35.0156C72.8536 36.1883 73.6485 37.9355 73.6485 39.7929V42.2878C73.6485 42.3902 73.5698 42.4689 73.4754 42.4689Z" fill="#1F2937"/>
<path d="M66.3453 43.5391C66.2587 43.5391 66.1879 43.4761 66.1721 43.3895C66.1564 43.2951 66.2272 43.2085 66.3217 43.1928L73.4444 42.209C73.4601 42.209 73.4758 42.209 73.4916 42.209L80.63 43.1928C80.7245 43.2085 80.7874 43.2951 80.7796 43.3895C80.7638 43.484 80.6772 43.5548 80.5828 43.5391L73.468 42.5553L66.3689 43.5391C66.361 43.5391 66.3531 43.5391 66.3453 43.5391Z" fill="#1F2937"/>
<path d="M98.3997 49.0172C98.3053 49.0172 98.2266 48.9385 98.2266 48.844V45.4598C98.2266 45.3653 98.3053 45.2866 98.3997 45.2866C98.4942 45.2866 98.5729 45.3653 98.5729 45.4598V48.844C98.5729 48.9385 98.4942 49.0172 98.3997 49.0172Z" fill="#1F2937"/>
<path d="M100.093 47.3251H96.7083C96.6139 47.3251 96.5352 47.2463 96.5352 47.1519C96.5352 47.0575 96.6139 46.9788 96.7083 46.9788H100.093C100.187 46.9788 100.266 47.0575 100.266 47.1519C100.266 47.2463 100.187 47.3251 100.093 47.3251Z" fill="#1F2937"/>
<path d="M71.8899 78.6178C71.7955 78.6178 71.7168 78.5391 71.7168 78.4446V75.0604C71.7168 74.9659 71.7955 74.8872 71.8899 74.8872C71.9844 74.8872 72.0631 74.9659 72.0631 75.0604V78.4446C72.0631 78.5391 71.9844 78.6178 71.8899 78.6178Z" fill="#1F2937"/>
<path d="M73.5828 76.9256H70.1985C70.1041 76.9256 70.0254 76.8469 70.0254 76.7525C70.0254 76.6581 70.1041 76.5793 70.1985 76.5793H73.5828C73.6773 76.5793 73.756 76.6581 73.756 76.7525C73.756 76.8469 73.6773 76.9256 73.5828 76.9256Z" fill="#1F2937"/>
<path d="M103.509 69.8894C103.415 69.8894 103.336 69.8107 103.336 69.7162V67.9769C103.336 67.8824 103.415 67.8037 103.509 67.8037C103.604 67.8037 103.682 67.8824 103.682 67.9769V69.7162C103.682 69.8185 103.604 69.8894 103.509 69.8894Z" fill="#1F2937"/>
<path d="M104.383 69.0235H102.644C102.549 69.0235 102.471 68.9448 102.471 68.8504C102.471 68.756 102.549 68.6772 102.644 68.6772H104.383C104.478 68.6772 104.556 68.756 104.556 68.8504C104.556 68.9448 104.478 69.0235 104.383 69.0235Z" fill="#1F2937"/>
<path d="M91.3412 53.7551C90.6564 53.7551 90.0977 53.1963 90.0977 52.5116C90.0977 51.8269 90.6564 51.2681 91.3412 51.2681C92.0259 51.2681 92.5847 51.8269 92.5847 52.5116C92.5926 53.1963 92.0338 53.7551 91.3412 53.7551ZM91.3412 51.6065C90.8453 51.6065 90.4439 52.0079 90.4439 52.5037C90.4439 52.9995 90.8453 53.4009 91.3412 53.4009C91.837 53.4009 92.2384 52.9995 92.2384 52.5037C92.2384 52.0079 91.837 51.6065 91.3412 51.6065Z" fill="#1F2937"/>
<path d="M68.2016 65.9384C67.1391 65.9384 66.2812 65.0727 66.2812 64.018C66.2812 62.9555 67.147 62.0977 68.2016 62.0977C69.2563 62.0977 70.122 62.9634 70.122 64.018C70.122 65.0727 69.2641 65.9384 68.2016 65.9384ZM68.2016 62.4361C67.3359 62.4361 66.6275 63.1444 66.6275 64.0102C66.6275 64.8759 67.3359 65.5842 68.2016 65.5842C69.0674 65.5842 69.7757 64.8759 69.7757 64.0102C69.7757 63.1444 69.0674 62.4361 68.2016 62.4361Z" fill="#1F2937"/>
<path d="M110.144 54.9908C108.869 54.9908 107.822 53.9519 107.822 52.6769C107.822 51.4019 108.861 50.363 110.144 50.363C111.419 50.363 112.466 51.4019 112.466 52.6769C112.458 53.9519 111.419 54.9908 110.144 54.9908ZM110.144 50.7093C109.058 50.7093 108.169 51.5908 108.169 52.6769C108.169 53.763 109.05 54.6445 110.144 54.6445C111.238 54.6445 112.119 53.763 112.119 52.6769C112.112 51.5908 111.23 50.7093 110.144 50.7093Z" fill="#1F2937"/>
<path d="M97.4948 77.8936C96.7156 77.8936 96.0781 77.2561 96.0781 76.477C96.0781 75.6978 96.7156 75.0603 97.4948 75.0603C98.274 75.0603 98.9115 75.6978 98.9115 76.477C98.9115 77.2561 98.274 77.8936 97.4948 77.8936ZM97.4948 75.4066C96.9045 75.4066 96.4244 75.8867 96.4244 76.477C96.4244 77.0673 96.9045 77.5473 97.4948 77.5473C98.0851 77.5473 98.5652 77.0673 98.5652 76.477C98.5652 75.8867 98.0851 75.4066 97.4948 75.4066Z" fill="#1F2937"/>
<path d="M209.695 143.855H138.106C135.43 143.855 133.494 141.974 133.494 139.377L133.471 6.17067C133.471 3.10122 136.391 0.26001 139.562 0.26001H211.151C213.827 0.26001 215.763 2.14103 215.763 4.73826L215.787 137.945C215.787 141.014 212.859 143.855 209.695 143.855Z" fill="#F8FAFC"/>
<path d="M209.695 144.028H138.106C135.335 144.028 133.32 142.077 133.32 139.377L133.297 6.17072C133.297 4.65961 133.989 3.11701 135.209 1.93646C136.421 0.755897 138.011 0.0869141 139.562 0.0869141H211.151C213.921 0.0869141 215.936 2.03877 215.936 4.73831L215.96 137.945C215.96 139.456 215.267 140.998 214.047 142.179C212.835 143.352 211.245 144.028 209.695 144.028ZM139.554 0.433211C138.09 0.433211 136.595 1.07071 135.445 2.18831C134.296 3.29803 133.643 4.75406 133.643 6.17072L133.667 139.377C133.667 141.872 135.532 143.682 138.106 143.682H209.695C211.159 143.682 212.654 143.045 213.803 141.927C214.952 140.817 215.605 139.361 215.605 137.945L215.582 4.73831C215.582 2.2434 213.717 0.433211 211.143 0.433211H139.554Z" fill="#1F2937"/>
<path d="M210.606 133.404L210.48 8.9255C210.48 6.65883 208.788 5.01392 206.451 5.01392H198.596L196.077 11.0112C195.424 12.5616 193.826 13.6635 192.213 13.6635H160.322C158.496 13.6635 156.977 12.719 156.324 11.1686L153.743 5.01392H143.881C141.118 5.01392 138.561 7.49309 138.561 10.1769L138.686 134.655C138.686 136.922 140.379 138.567 142.716 138.567H205.286C208.048 138.567 210.606 136.087 210.606 133.404Z" fill="#F8FAFC"/>
<path d="M205.287 138.74H142.717C140.278 138.74 138.515 137.024 138.515 134.655L138.389 10.1769C138.389 8.84685 139.003 7.50101 140.065 6.46212C141.128 5.4311 142.521 4.84082 143.882 4.84082H153.744C153.815 4.84082 153.878 4.88017 153.901 4.95101L156.483 11.1057C157.104 12.5774 158.568 13.4982 160.316 13.4982H192.206C193.733 13.4982 195.292 12.4279 195.913 10.9561L198.432 4.95888C198.455 4.89591 198.518 4.84869 198.589 4.84869H206.444C208.884 4.84869 210.647 6.56444 210.647 8.93342L210.773 133.411C210.773 134.734 210.159 136.087 209.096 137.126C208.042 138.149 206.649 138.74 205.287 138.74ZM143.882 5.17925C142.607 5.17925 141.301 5.73804 140.301 6.7061C139.302 7.67416 138.727 8.94129 138.727 10.1691L138.853 134.647C138.853 136.812 140.474 138.386 142.71 138.386H205.279C206.554 138.386 207.853 137.827 208.86 136.859C209.86 135.891 210.434 134.624 210.434 133.396L210.308 8.91768C210.308 6.75332 208.687 5.17925 206.452 5.17925H198.707L196.236 11.0742C195.559 12.6955 193.899 13.8288 192.214 13.8288H160.323C158.435 13.8288 156.845 12.8293 156.168 11.2237L153.626 5.17925H143.882Z" fill="#1F2937"/>
<path d="M177.238 85.7085L172.453 130.601C172.067 132.191 170.863 133.285 169.494 133.285H157.728C155.902 133.285 154.902 130.703 156.083 129.003L157.177 127.429L167.196 70.2038L179.836 70.0464L177.238 85.7085Z" fill="#F8FAFC"/>
<path d="M169.486 133.45H157.719C156.901 133.45 156.185 132.978 155.752 132.152C155.209 131.113 155.28 129.838 155.933 128.901L157.003 127.359L167.014 70.1646C167.03 70.0858 167.101 70.0229 167.18 70.0229L179.819 69.8655C179.914 69.8655 179.993 69.9442 179.993 70.0386C179.993 70.1331 179.914 70.2118 179.819 70.2118L167.321 70.3692L157.334 127.453C157.326 127.477 157.318 127.5 157.302 127.524L156.208 129.098C155.626 129.932 155.571 131.066 156.051 131.994C156.421 132.703 157.027 133.104 157.711 133.104H169.478C170.753 133.104 171.902 132.057 172.264 130.57L177.049 85.6928C177.057 85.5984 177.143 85.5276 177.238 85.5354C177.332 85.5433 177.403 85.6299 177.395 85.7243L172.61 130.617C172.61 130.625 172.61 130.633 172.61 130.641C172.217 132.293 170.926 133.45 169.486 133.45Z" fill="#1F2937"/>
<path d="M170.578 131.892C170.57 131.892 170.555 131.892 170.547 131.892C159.772 129.94 158.182 128.138 158.12 128.059C158.057 127.988 158.072 127.878 158.143 127.815C158.214 127.752 158.324 127.768 158.387 127.839C158.411 127.87 160.087 129.641 170.61 131.554C170.704 131.569 170.767 131.664 170.752 131.758C170.736 131.837 170.657 131.892 170.578 131.892Z" fill="#1F2937"/>
<path d="M179.084 70.0469L188.096 69.9053L192.511 129.429C192.574 131.538 191.173 133.293 189.426 133.293H179.43C177.659 133.293 176.251 131.491 176.353 129.35L177.211 86.2206L179.084 70.0469Z" fill="#F8FAFC"/>
<path d="M189.434 133.451H179.439C178.652 133.451 177.889 133.112 177.298 132.491C176.535 131.696 176.134 130.539 176.189 129.327L177.046 86.1969C177.046 86.1025 177.125 86.0238 177.22 86.0238C177.314 86.0238 177.393 86.1025 177.393 86.1969L176.535 129.327C176.48 130.452 176.85 131.507 177.55 132.239C178.077 132.79 178.746 133.097 179.439 133.097H189.434C190.119 133.097 190.78 132.797 191.308 132.262C192 131.554 192.378 130.515 192.347 129.413L187.939 70.0626L179.093 70.2043C178.99 70.2043 178.92 70.1256 178.92 70.0311C178.92 69.9367 178.998 69.858 179.093 69.858L188.104 69.7163C188.199 69.7163 188.27 69.7871 188.278 69.8737L192.693 129.397C192.724 130.602 192.315 131.727 191.559 132.506C190.961 133.12 190.206 133.451 189.434 133.451Z" fill="#1F2937"/>
<path d="M191.537 130.586C191.513 130.586 191.49 130.578 191.466 130.57C183.659 126.887 177.599 130.2 177.543 130.24C177.457 130.287 177.355 130.255 177.307 130.177C177.26 130.09 177.292 129.988 177.37 129.941C177.433 129.909 183.635 126.501 191.616 130.263C191.702 130.303 191.742 130.405 191.702 130.491C191.671 130.547 191.608 130.586 191.537 130.586Z" fill="#1F2937"/>
<path d="M186.605 52.0866C187.761 49.1903 190.87 50.2528 189.981 47.262C188.053 40.7768 187.061 35.968 184.684 29.7032C183.984 27.8615 182.622 25.5555 181.111 24.2884C179.6 23.0212 177.53 22.2578 175.625 22.7615C173.374 23.3597 171.548 25.6736 170.635 27.8222C167.999 33.9926 163.229 45.7037 166.519 51.5514C169.046 56.0533 184.393 57.6273 186.605 52.0866Z" fill="#1F2937"/>
<path d="M177.3 98.8366C189.617 98.8524 199.88 94.5158 199.88 94.5158C199.88 94.5158 190.357 90.9584 190.192 81.3171C190.066 73.9741 190.239 73.5176 190.137 70.9361C189.877 64.7657 185.714 59.3824 185.714 59.3824L177.654 57.4856H176.773L168.714 59.3824C168.714 59.3824 164.55 64.7657 164.29 70.9361C164.18 73.5176 164.18 74.2731 164.015 81.6162C163.818 90.3445 154.547 94.5158 154.547 94.5158C154.547 94.5158 164.755 98.8524 177.103 98.8366H177.3Z" fill="#F8FAFC"/>
<path d="M177.057 99.0098C164.835 99.0098 154.587 94.7205 154.485 94.6732C154.422 94.6496 154.383 94.5867 154.383 94.5158C154.383 94.445 154.422 94.382 154.485 94.3584C154.58 94.3191 163.662 90.132 163.851 81.6163C163.882 80.1051 163.914 78.8774 163.937 77.8463C164.024 73.9111 164.04 72.9746 164.126 70.9283C164.386 64.7736 168.542 59.3352 168.581 59.2801C168.605 59.2486 168.636 59.225 168.675 59.2171L176.735 57.3204C176.75 57.3204 176.758 57.3125 176.774 57.3125H177.656C177.671 57.3125 177.679 57.3125 177.695 57.3204L185.754 59.2171C185.794 59.225 185.825 59.2486 185.849 59.2801C185.888 59.3352 190.044 64.7736 190.303 70.9283C190.35 72.0931 190.343 72.8329 190.335 73.9505C190.319 75.3514 190.295 77.2718 190.366 81.3093C190.524 90.7223 199.842 94.3191 199.937 94.3506C200 94.3742 200.047 94.4371 200.047 94.508C200.047 94.5788 200.007 94.6418 199.944 94.6732C199.842 94.7205 189.548 99.0098 177.356 99.0098C177.341 99.0098 177.317 99.0098 177.301 99.0098H177.105C177.089 99.0098 177.073 99.0098 177.057 99.0098ZM154.973 94.5001C156.878 95.2478 166.181 98.6635 177.05 98.6635C177.065 98.6635 177.089 98.6635 177.105 98.6635H177.301C177.317 98.6635 177.341 98.6635 177.356 98.6635C188.147 98.6635 197.442 95.2871 199.425 94.5158C198.638 94.1695 196.812 93.2566 194.986 91.6667C192.767 89.7306 190.107 86.37 190.02 81.3251C189.949 77.2875 189.973 75.3593 189.988 73.9584C190.004 72.8486 190.012 72.1088 189.957 70.9519C189.713 65.2144 186.022 60.0986 185.613 59.5477L177.632 57.6667H176.79L168.817 59.532C168.408 60.0829 164.709 65.1986 164.473 70.9361C164.386 72.9824 164.362 73.919 164.284 77.8463C164.26 78.8695 164.237 80.1051 164.197 81.6163C164.016 89.3765 156.681 93.6107 154.973 94.5001Z" fill="#1F2937"/>
<path d="M189.293 62.1054L185.279 38.6202C185.279 38.6202 181.171 37.9434 177.44 37.9434C172.694 37.9434 168.83 38.5258 168.83 38.5258L164.58 62.011L189.293 62.1054Z" fill="currentColor"/>
<path d="M192.984 53.33L191.127 52.4485L187.444 50.9846L185.24 38.6045C185.932 38.6045 186.712 38.88 187.294 39.2499L195.928 44.7749C197.234 45.5304 198.163 46.0105 199.855 47.3091C203.279 49.93 203.2 54.3453 200.398 57.6115C197.659 60.799 192.827 65.7573 188.915 66.2847C188.325 66.3634 184.256 64.8995 182.548 64.4666C182.273 64.3958 182.1 64.136 182.139 63.8527L182.17 63.6481L181.446 63.5536C181.163 63.5143 180.958 63.2703 180.958 62.987V62.9476C180.966 62.6958 181.147 62.4833 181.399 62.4518L182.186 62.3416L180.368 62.0504C180.101 62.0032 179.88 61.8064 179.825 61.5388C179.77 61.2712 179.935 61.0115 180.203 60.9485C180.825 60.8069 181.879 60.5786 182.422 60.618C182.422 60.618 180.116 60.5629 179.99 60.3425C179.809 60.012 180.124 59.3194 182.438 59.2564C184.752 59.1934 185.995 59.886 185.995 59.886L192.984 53.33Z" fill="#F8FAFC"/>
<path d="M188.868 66.4734C188.42 66.4734 187.161 66.0878 185.209 65.466C184.162 65.1355 183.17 64.8128 182.509 64.6475C182.147 64.5531 181.919 64.2068 181.974 63.8447L181.982 63.8132L181.431 63.7424C181.061 63.6952 180.786 63.3725 180.793 63.0026V62.9632C180.801 62.7035 180.943 62.4831 181.155 62.3651L180.345 62.2313C180.006 62.1762 179.731 61.9243 179.66 61.5859C179.581 61.2317 179.81 60.8697 180.164 60.791C180.305 60.7595 180.463 60.7202 180.612 60.6887C179.928 60.6021 179.865 60.4841 179.841 60.429C179.747 60.2637 179.755 60.0591 179.865 59.878C180.061 59.5396 180.66 59.1304 182.438 59.0831C184.398 59.028 185.602 59.5081 185.964 59.6813L192.67 53.4007L187.499 51.2127C187.412 51.1734 187.373 51.0711 187.405 50.9845C187.444 50.8979 187.546 50.8586 187.633 50.8901L193.048 53.1882C193.103 53.2118 193.142 53.259 193.15 53.3141C193.158 53.3692 193.142 53.4322 193.095 53.4715L186.106 60.0197C186.051 60.0669 185.972 60.0827 185.901 60.0433C185.886 60.0354 184.666 59.3665 182.438 59.4373C180.628 59.4845 180.235 59.9253 180.156 60.0591C180.109 60.1378 180.117 60.2007 180.132 60.2479C180.329 60.3424 181.36 60.429 182.289 60.4526C182.336 60.4526 182.383 60.4526 182.43 60.4526C182.525 60.4604 182.596 60.5392 182.596 60.6336C182.596 60.728 182.517 60.7989 182.423 60.7989C182.375 60.7989 182.328 60.7989 182.289 60.7989C181.738 60.8067 180.793 61.0035 180.25 61.1294C180.077 61.1688 179.967 61.3419 180.006 61.5151C180.046 61.7118 180.203 61.8614 180.408 61.8929L182.226 62.1841C182.312 62.1998 182.375 62.2706 182.375 62.3572C182.375 62.4438 182.312 62.5146 182.226 62.5304L181.439 62.6405C181.273 62.6642 181.148 62.798 181.148 62.9711V63.0105C181.148 63.2072 181.289 63.3725 181.486 63.404L182.21 63.4984C182.257 63.5063 182.297 63.5299 182.328 63.5693C182.36 63.6086 182.367 63.6558 182.36 63.6952L182.328 63.8998C182.297 64.0887 182.423 64.2697 182.611 64.3169C183.28 64.4901 184.272 64.8049 185.327 65.1433C186.775 65.6077 188.585 66.1822 188.908 66.135C192.811 65.6077 197.707 60.5155 200.28 57.5248C201.752 55.8169 202.476 53.7313 202.272 51.7951C202.091 50.0873 201.225 48.5919 199.761 47.4664C198.313 46.3567 197.416 45.8451 196.385 45.247C196.212 45.1447 196.038 45.0502 195.849 44.94L187.507 39.6039C186.822 39.1632 186.145 38.9349 185.327 38.8484C185.232 38.8405 185.161 38.7539 185.169 38.6595C185.177 38.565 185.264 38.4942 185.358 38.5021C186.224 38.5886 186.964 38.8405 187.688 39.3048L196.023 44.641C196.204 44.7433 196.377 44.8456 196.55 44.9479C197.597 45.5461 198.502 46.0655 199.966 47.191C201.508 48.3715 202.421 49.9456 202.61 51.7558C202.823 53.81 202.091 55.935 200.532 57.7452C197.927 60.7753 192.961 65.9304 188.939 66.4734C188.916 66.4734 188.892 66.4734 188.868 66.4734Z" fill="#1F2937"/>
<path d="M183.272 62.6014C183.265 62.6014 183.265 62.6014 183.257 62.6014L182.328 62.5227C182.233 62.5148 182.163 62.4282 182.171 62.3338C182.178 62.2393 182.265 62.1685 182.359 62.1764L183.288 62.2551C183.383 62.263 183.453 62.3495 183.446 62.444C183.438 62.5305 183.359 62.6014 183.272 62.6014Z" fill="#1F2937"/>
<path d="M184.155 64.0887C184.147 64.0887 184.131 64.0887 184.123 64.0887C183.47 63.9549 182.801 63.8683 182.14 63.829C182.045 63.8211 181.975 63.7424 181.975 63.6479C181.982 63.5535 182.061 63.4827 182.156 63.4827C182.832 63.522 183.517 63.6165 184.186 63.7503C184.281 63.766 184.344 63.8604 184.32 63.9549C184.312 64.0336 184.233 64.0887 184.155 64.0887Z" fill="#1F2937"/>
<path d="M193.244 53.3143C193.197 53.3143 193.15 53.2985 193.119 53.2592C193.056 53.1883 193.056 53.0782 193.126 53.0152L195.393 50.8351C195.464 50.7721 195.574 50.7721 195.637 50.843C195.7 50.9138 195.7 51.024 195.629 51.0869L193.363 53.267C193.331 53.2985 193.284 53.3143 193.244 53.3143Z" fill="#1F2937"/>
<path d="M161.092 53.33L162.949 52.4485L166.632 50.9846L168.836 38.6045C168.143 38.6045 167.364 38.88 166.782 39.2499L158.148 44.7827C156.842 45.5383 155.913 46.0184 154.221 47.317C150.797 49.9379 150.876 54.3531 153.678 57.6193C156.416 60.8069 161.249 65.7652 165.161 66.2925C165.751 66.3712 169.82 64.9073 171.528 64.4745C171.803 64.4036 171.976 64.1439 171.937 63.8606L171.905 63.6559L172.63 63.5615C172.913 63.5221 173.117 63.2782 173.117 62.9948V62.9555C173.11 62.7036 172.929 62.4911 172.677 62.4596L171.89 62.3495L173.708 62.0582C173.975 62.011 174.196 61.8143 174.251 61.5467C174.306 61.2791 174.141 61.0194 173.873 60.9564C173.251 60.8147 172.197 60.5865 171.654 60.6258C171.654 60.6258 173.96 60.5707 174.086 60.3504C174.267 60.0198 173.952 59.3272 171.638 59.2643C169.324 59.2013 168.08 59.8939 168.08 59.8939L161.092 53.33Z" fill="#F8FAFC"/>
<path d="M165.209 66.4734C165.185 66.4734 165.154 66.4734 165.138 66.4656C161.116 65.9225 156.15 60.7595 153.553 57.7373C152.003 55.9271 151.263 53.8021 151.475 51.7479C151.664 49.9377 152.577 48.3637 154.12 47.1831C155.584 46.0576 156.489 45.5382 157.535 44.94C157.709 44.8377 157.882 44.7433 158.063 44.6331L166.39 39.3048C167.114 38.8405 167.861 38.5808 168.719 38.5021C168.814 38.4942 168.9 38.565 168.908 38.6595C168.916 38.7539 168.845 38.8405 168.751 38.8484C167.932 38.9271 167.263 39.1632 166.571 39.6039L158.236 44.94C158.047 45.0502 157.866 45.1525 157.701 45.247C156.662 45.8451 155.772 46.3567 154.324 47.4664C152.86 48.584 151.995 50.0794 151.814 51.7951C151.609 53.7234 152.341 55.8169 153.805 57.5248C156.378 60.5155 161.274 65.6156 165.178 66.135C165.5 66.1743 167.31 65.5998 168.759 65.1433C169.813 64.8049 170.805 64.4901 171.474 64.3248C171.663 64.2776 171.781 64.0966 171.757 63.9077L171.726 63.703C171.718 63.6558 171.734 63.6086 171.757 63.5771C171.789 63.5378 171.828 63.5142 171.875 63.5063L172.599 63.4118C172.796 63.3882 172.938 63.2151 172.938 63.0183V62.979C172.938 62.8137 172.812 62.672 172.647 62.6484L171.86 62.5382C171.773 62.5304 171.71 62.4517 171.71 62.3651C171.71 62.2785 171.773 62.2077 171.86 62.1919L173.678 61.9007C173.874 61.8692 174.032 61.7197 174.079 61.5229C174.118 61.3498 174.008 61.1767 173.835 61.1373C173.292 61.0114 172.347 60.8067 171.797 60.8067C171.749 60.8067 171.702 60.8067 171.663 60.8067C171.568 60.8067 171.49 60.7359 171.49 60.6415C171.482 60.547 171.56 60.4683 171.655 60.4604C171.702 60.4604 171.749 60.4604 171.797 60.4604C172.725 60.4368 173.756 60.3503 173.953 60.2558C173.969 60.2086 173.977 60.1456 173.929 60.0669C173.851 59.9331 173.457 59.4924 171.647 59.4452C169.412 59.3822 168.192 60.0512 168.184 60.0512C168.121 60.0905 168.035 60.0748 167.979 60.0276L160.991 53.4794C160.951 53.4401 160.928 53.3771 160.935 53.322C160.943 53.2669 160.983 53.2118 161.038 53.1961L166.453 50.8979C166.539 50.8586 166.641 50.8979 166.681 50.9924C166.72 51.0789 166.681 51.1813 166.586 51.2206L161.416 53.4086L168.121 59.6891C168.483 59.516 169.687 59.0359 171.647 59.091C173.426 59.1382 174.024 59.5475 174.221 59.8859C174.323 60.0669 174.331 60.2637 174.244 60.4368C174.213 60.4919 174.15 60.61 173.473 60.6966C173.63 60.728 173.78 60.7674 173.922 60.7989C174.276 60.8854 174.504 61.2396 174.425 61.5938C174.354 61.9322 174.087 62.1841 173.741 62.2392L172.93 62.373C173.142 62.4831 173.292 62.7114 173.292 62.9711V63.0105C173.3 63.3804 173.024 63.703 172.654 63.7503L172.104 63.8211L172.111 63.8526C172.166 64.2225 171.93 64.5688 171.568 64.6554C170.915 64.8206 169.923 65.1355 168.869 65.4739C166.917 66.0799 165.666 66.4734 165.209 66.4734Z" fill="#1F2937"/>
<path d="M170.805 62.6014C170.718 62.6014 170.639 62.5305 170.631 62.444C170.624 62.3495 170.694 62.263 170.789 62.2551L171.718 62.1764C171.812 62.1685 171.899 62.2393 171.906 62.3338C171.914 62.4282 171.843 62.5148 171.749 62.5227L170.82 62.6014C170.812 62.6014 170.812 62.6014 170.805 62.6014Z" fill="#1F2937"/>
<path d="M169.924 64.0886C169.845 64.0886 169.774 64.0335 169.751 63.9469C169.735 63.8525 169.79 63.7581 169.885 63.7423C170.554 63.6085 171.238 63.5141 171.915 63.4747C172.017 63.4668 172.096 63.5377 172.096 63.64C172.104 63.7344 172.033 63.821 171.931 63.821C171.27 63.8604 170.601 63.9469 169.947 64.0807C169.947 64.0886 169.932 64.0886 169.924 64.0886Z" fill="#1F2937"/>
<path d="M160.833 53.3143C160.786 53.3143 160.747 53.2985 160.715 53.267L158.449 51.0869C158.378 51.024 158.378 50.9138 158.441 50.843C158.504 50.7721 158.614 50.7721 158.685 50.8351L160.951 53.0152C161.022 53.0782 161.022 53.1883 160.959 53.2592C160.928 53.2907 160.881 53.3143 160.833 53.3143Z" fill="#1F2937"/>
<path d="M179.511 32.741L179.479 37.9669C179.479 37.9669 179.951 37.8961 179.975 38.7303C179.991 39.4308 177.354 42.941 177.354 42.941C177.354 42.941 174.474 39.5803 174.45 38.7933C174.426 38.0062 174.914 37.9118 174.914 37.9118L174.899 32.7095L179.511 32.741Z" fill="#F8FAFC"/>
<path d="M181.605 29.3647C181.283 29.2703 180.944 29.5536 180.732 30.0416C180.685 29.6953 180.197 29.774 179.276 28.7666C178.922 28.3731 178.245 26.8777 178.245 26.8777C178.245 26.8777 177.166 28.0504 176.12 28.7981C174.916 29.6559 173.735 29.7032 173.696 30.0573C173.483 29.5615 173.137 29.2624 172.814 29.3569C172.389 29.4828 172.169 30.2226 172.318 31.0096C172.468 31.7967 172.924 32.3319 173.349 32.2059C173.507 32.1587 173.633 32.0249 173.727 31.8439C174.113 34.1814 175.411 35.968 177.222 36.0624C179.032 36.1569 180.299 34.1893 180.708 31.8596C180.803 32.0407 180.928 32.1666 181.078 32.2138C181.503 32.3397 181.96 31.8045 182.109 31.0175C182.251 30.2226 182.03 29.4828 181.605 29.3647Z" fill="#F8FAFC"/>
<path d="M177.34 36.2433C177.293 36.2433 177.253 36.2433 177.206 36.2433C175.498 36.1567 174.121 34.6063 173.625 32.2609C173.554 32.316 173.476 32.3553 173.397 32.3868C173.216 32.4419 173.035 32.4104 172.854 32.3002C172.515 32.0956 172.256 31.6234 172.146 31.0488C171.98 30.1595 172.256 29.3488 172.767 29.1993C173.114 29.097 173.476 29.3095 173.735 29.7502C173.877 29.6558 174.09 29.5771 174.349 29.4826C174.798 29.3174 175.412 29.097 176.026 28.6562C177.049 27.9243 178.119 26.7674 178.127 26.7595C178.166 26.7201 178.222 26.6965 178.284 26.7044C178.34 26.7123 178.395 26.7516 178.418 26.8067C178.599 27.216 179.142 28.3414 179.418 28.6484C179.898 29.1757 180.252 29.3961 180.488 29.5377C180.575 29.5928 180.653 29.64 180.724 29.6951C180.976 29.2937 181.322 29.097 181.661 29.1993C182.172 29.3488 182.448 30.1674 182.283 31.0488C182.172 31.6234 181.913 32.0877 181.574 32.3002C181.401 32.4104 181.212 32.434 181.031 32.3868C180.953 32.3632 180.874 32.3238 180.803 32.2688C180.354 34.3151 179.15 36.2433 177.34 36.2433ZM173.728 31.6785C173.735 31.6785 173.743 31.6785 173.751 31.6785C173.822 31.6863 173.885 31.7493 173.893 31.8201C174.286 34.2127 175.593 35.8104 177.222 35.897C179.001 35.9993 180.166 33.9215 180.528 31.8359C180.543 31.765 180.598 31.7021 180.669 31.6942C180.74 31.6863 180.819 31.7178 180.85 31.7887C180.905 31.891 180.992 32.0169 181.118 32.0563C181.197 32.0799 181.283 32.0641 181.378 32.009C181.622 31.8595 181.842 31.4581 181.928 30.9938C182.07 30.2461 181.842 29.6243 181.551 29.5377C181.33 29.4748 181.063 29.703 180.89 30.1123C180.858 30.1831 180.787 30.2225 180.709 30.2146C180.63 30.2067 180.575 30.1437 180.559 30.065C180.551 29.9942 180.504 29.9627 180.299 29.8368C180.047 29.6794 179.662 29.4512 179.15 28.8845C178.867 28.5697 178.41 27.6331 178.198 27.1845C177.844 27.5465 177.033 28.365 176.222 28.9396C175.569 29.4039 174.932 29.64 174.459 29.8053C174.223 29.8919 173.893 30.01 173.869 30.0808C173.861 30.1595 173.798 30.2225 173.72 30.2303C173.641 30.2382 173.57 30.1988 173.539 30.128C173.365 29.7109 173.082 29.4669 172.87 29.5299C172.578 29.6164 172.35 30.2382 172.492 30.9859C172.578 31.4502 172.791 31.8516 173.043 32.0012C173.137 32.0563 173.224 32.072 173.303 32.0484C173.436 32.009 173.523 31.8752 173.578 31.7729C173.602 31.71 173.665 31.6785 173.728 31.6785Z" fill="#1F2937"/>
<path d="M173.492 30.9466C173.413 30.9466 173.342 30.8915 173.327 30.8128C173.224 30.3563 172.988 30.2225 172.925 30.2225C172.854 30.2697 172.752 30.254 172.697 30.1831C172.634 30.1044 172.65 30.0021 172.729 29.9391C172.815 29.8683 172.949 29.8526 173.083 29.8998C173.358 29.9942 173.579 30.3091 173.673 30.7341C173.697 30.8285 173.634 30.9229 173.539 30.9387C173.516 30.9466 173.5 30.9466 173.492 30.9466Z" fill="#1F2937"/>
<path d="M181.008 30.9466C180.992 30.9466 180.984 30.9466 180.968 30.9387C180.874 30.9151 180.819 30.8285 180.835 30.7341C180.929 30.3091 181.15 29.9942 181.425 29.8998C181.559 29.8526 181.685 29.8683 181.779 29.9391C181.858 30.0021 181.866 30.1044 181.811 30.1831C181.756 30.254 181.653 30.2697 181.582 30.2225C181.519 30.2225 181.283 30.3563 181.181 30.8128C181.157 30.8915 181.087 30.9466 181.008 30.9466Z" fill="#1F2937"/>
<path d="M143.759 74.9106H119.432V99.2144H143.759V74.9106Z" fill="#F8FAFC"/>
<path d="M143.76 99.3876H119.433C119.338 99.3876 119.26 99.3089 119.26 99.2145V74.9107C119.26 74.8163 119.338 74.7375 119.433 74.7375H143.76C143.855 74.7375 143.933 74.8163 143.933 74.9107V99.2145C143.933 99.3089 143.863 99.3876 143.76 99.3876ZM119.606 99.0413H143.587V75.0838H119.606V99.0413Z" fill="#1F2937"/>
<path d="M143.962 104.338H119.635V128.642H143.962V104.338Z" fill="#F8FAFC"/>
<path d="M143.963 128.823H119.636C119.542 128.823 119.463 128.744 119.463 128.65V104.346C119.463 104.252 119.542 104.173 119.636 104.173H143.963C144.058 104.173 144.137 104.252 144.137 104.346V128.65C144.137 128.744 144.058 128.823 143.963 128.823ZM119.809 128.477H143.79V104.519H119.809V128.477Z" fill="#1F2937"/>
<path d="M143.745 45.5149H119.418V69.8187H143.745V45.5149Z" fill="#F8FAFC"/>
<path d="M143.747 69.9997H119.419C119.325 69.9997 119.246 69.921 119.246 69.8266V45.5149C119.246 45.4205 119.325 45.3418 119.419 45.3418H143.747C143.841 45.3418 143.92 45.4205 143.92 45.5149V69.8187C143.92 69.921 143.849 69.9997 143.747 69.9997ZM119.592 69.6534H143.573V45.6881H119.592V69.6534Z" fill="#1F2937"/>
<path d="M143.759 15.9458H119.432V40.2496H143.759V15.9458Z" fill="#F8FAFC"/>
<path d="M143.76 40.4306H119.433C119.338 40.4306 119.26 40.3519 119.26 40.2575V15.9459C119.26 15.8514 119.338 15.7727 119.433 15.7727H143.76C143.855 15.7727 143.933 15.8514 143.933 15.9459V40.2496C143.933 40.3519 143.863 40.4306 143.76 40.4306ZM119.606 40.0843H143.587V16.119H119.606V40.0843Z" fill="#1F2937"/>
<path d="M131.763 36.4641C128.08 36.4641 125.758 35.4803 125.758 35.4803C125.758 35.4803 127.922 29.2548 129.418 26.0201C129.709 24.1312 128.56 19.4404 128.56 19.4404H129.142L129.591 20.3613C130.047 21.0224 131.07 21.5261 131.787 21.6441C131.787 21.6441 133.219 21.4789 133.919 20.3613C134.053 20.1409 134.368 19.4404 134.368 19.4404H134.95C134.95 19.4404 133.825 24.0131 134.124 25.902C134.911 27.8224 137.76 35.4882 137.76 35.4882C137.76 35.4882 135.493 36.4641 131.763 36.4641Z" fill="currentColor"/>
<path d="M138.805 84.3318L136.766 82.3642C135.869 81.4984 134.775 80.8531 133.587 80.4989L133.555 80.491C133.555 80.491 133.382 82.01 131.635 81.9628C130.328 81.9313 129.974 80.4832 129.974 80.4832C129.974 80.4832 129.943 80.491 129.919 80.491C128.739 80.8452 127.66 81.4827 126.763 82.3484L124.717 84.3239L126.677 86.4332L128.125 85.0322V92.1864H135.381V85.0322L136.837 86.4332L138.805 84.3318Z" fill="currentColor"/>
<path d="M129 52.8186H134.486L136.918 65.0177C136.918 65.0177 136.689 65.1279 136.138 65.2381C135.595 65.3404 135.036 65.3719 135.036 65.3719L134.013 60.6811L134.005 65.4899C134.005 65.4899 133.321 65.6552 131.101 65.6395C129.677 65.6316 126.623 65.12 126.623 65.12L129 52.8186Z" fill="currentColor"/>
<path d="M131.77 115.317L130.574 124.754L126.662 124.746L129.11 109.068H131.691H131.841H134.422L136.87 124.746L132.951 124.754L131.77 115.317Z" fill="currentColor"/>
<path d="M117.81 118.378H100.212C100.118 118.378 100.039 118.3 100.039 118.205C100.039 118.111 100.118 118.032 100.212 118.032H117.81C117.905 118.032 117.984 118.111 117.984 118.205C117.984 118.3 117.905 118.378 117.81 118.378Z" fill="#1F2937"/>
<path d="M99.5187 121.015C101.066 121.015 102.321 119.764 102.321 118.221C102.321 116.678 101.066 115.427 99.5187 115.427C97.9712 115.427 96.7168 116.678 96.7168 118.221C96.7168 119.764 97.9712 121.015 99.5187 121.015Z" fill="currentColor" fill-opacity="0.3"/>
<path d="M94.6717 118.394H63.5286C63.4342 118.394 63.3555 118.315 63.3555 118.221C63.3555 118.126 63.4342 118.048 63.5286 118.048H94.6717C94.7662 118.048 94.8449 118.126 94.8449 118.221C94.8449 118.315 94.7662 118.394 94.6717 118.394Z" fill="#1F2937"/>
<path d="M81.6463 121.857H63.5286C63.4342 121.857 63.3555 121.778 63.3555 121.684C63.3555 121.589 63.4342 121.51 63.5286 121.51H81.6463C81.7407 121.51 81.8194 121.589 81.8194 121.684C81.8194 121.778 81.7407 121.857 81.6463 121.857Z" fill="#1F2937"/>
<path d="M94.6726 121.857H87.5735C87.4791 121.857 87.4004 121.778 87.4004 121.684C87.4004 121.589 87.4791 121.51 87.5735 121.51H94.6726C94.7671 121.51 94.8458 121.589 94.8458 121.684C94.8458 121.778 94.7671 121.857 94.6726 121.857Z" fill="#1F2937"/>
<path d="M71.037 125.32H63.5208C63.4264 125.32 63.3477 125.241 63.3477 125.147C63.3477 125.052 63.4264 124.974 63.5208 124.974H71.037C71.1315 124.974 71.2102 125.052 71.2102 125.147C71.2102 125.241 71.1393 125.32 71.037 125.32Z" fill="#1F2937"/>
<path d="M94.6733 125.32H76.595C76.5006 125.32 76.4219 125.241 76.4219 125.147C76.4219 125.052 76.5006 124.974 76.595 124.974H94.6733C94.7678 124.974 94.8465 125.052 94.8465 125.147C94.8465 125.241 94.7678 125.32 94.6733 125.32Z" fill="#1F2937"/>
<path d="M81.6463 128.775H63.5286C63.4342 128.775 63.3555 128.696 63.3555 128.602C63.3555 128.507 63.4342 128.429 63.5286 128.429H81.6463C81.7407 128.429 81.8194 128.507 81.8194 128.602C81.8194 128.696 81.7407 128.775 81.6463 128.775Z" fill="#1F2937"/>
<path d="M94.6719 128.775H88.7376C88.6432 128.775 88.5645 128.696 88.5645 128.602C88.5645 128.507 88.6432 128.429 88.7376 128.429H94.6719C94.7663 128.429 94.845 128.507 94.845 128.602C94.845 128.696 94.7663 128.775 94.6719 128.775Z" fill="#1F2937"/>
<path d="M81.8184 24.7208L85.9661 21.187H98.598C104.406 21.187 109.113 16.4805 109.113 10.6801C109.113 4.87959 104.406 0.173096 98.598 0.173096H92.3332C86.5249 0.173096 81.8184 4.87959 81.8184 10.6801V24.7208Z" fill="#F8FAFC"/>
<path d="M81.8196 24.894C81.796 24.894 81.7724 24.8862 81.7488 24.8783C81.6858 24.8468 81.6465 24.7917 81.6465 24.7209V10.6801C81.6465 4.79307 86.4395 0 92.3345 0H98.5993C104.494 0 109.287 4.79307 109.287 10.6801C109.287 16.5672 104.494 21.3602 98.5993 21.3602H86.0224L81.9298 24.8468C81.8983 24.8783 81.859 24.894 81.8196 24.894ZM92.3345 0.346297C86.6284 0.346297 81.9928 4.98196 81.9928 10.6801V24.3431L85.8493 21.0533C85.8808 21.0297 85.9201 21.0139 85.9595 21.0139H98.5914C104.297 21.0139 108.933 16.3783 108.933 10.6801C108.933 4.98196 104.29 0.346297 98.5914 0.346297H92.3345Z" fill="#1F2937"/>
<path d="M94.8369 6.94192L95.4665 7.57155L96.0962 6.94192C97.3397 5.6984 99.3624 5.6984 100.606 6.94192C101.849 8.18544 101.849 10.2003 100.606 11.4438L95.4665 16.5831L90.3272 11.4438C89.0837 10.2003 89.0837 8.18544 90.3272 6.94192C91.5707 5.6984 93.5855 5.6984 94.8369 6.94192Z" fill="#F8FAFC"/>
<path d="M95.4659 16.7639C95.4187 16.7639 95.3793 16.7482 95.34 16.7167L90.2006 11.5773C89.5631 10.9398 89.2168 10.0977 89.2168 9.20047C89.2168 8.30325 89.5631 7.46112 90.2006 6.82361C91.515 5.51713 93.6478 5.51713 94.9543 6.82361L95.4659 7.33519L95.9775 6.82361C97.2918 5.51713 99.4247 5.51713 100.731 6.82361C101.369 7.46112 101.715 8.30325 101.715 9.20047C101.715 10.0977 101.369 10.9398 100.731 11.5773L95.5918 16.7167C95.5525 16.7403 95.5131 16.7639 95.4659 16.7639ZM92.5775 6.18611C91.8062 6.18611 91.0349 6.47732 90.4446 7.0676C89.8779 7.63426 89.5631 8.38982 89.5631 9.20047C89.5631 10.0033 89.8779 10.7588 90.4446 11.3333L95.4659 16.3468L100.487 11.3333C101.054 10.7667 101.369 10.0111 101.369 9.20047C101.369 8.39769 101.054 7.64213 100.487 7.0676C99.3145 5.89491 97.402 5.89491 96.2214 7.0676L95.5918 7.69723C95.521 7.76806 95.4108 7.76806 95.3478 7.69723L94.7182 7.0676C94.1201 6.47732 93.3488 6.18611 92.5775 6.18611Z" fill="#1F2937"/>
</svg>
